<?xml version="1.0" encoding="UTF-8" standalone="no"?>
<svg width="35px" height="35px" viewBox="0 0 35 35" version="1.1" xmlns="http://www.w3.org/2000/svg" xmlns:xlink="http://www.w3.org/1999/xlink" xmlns:sketch="http://www.bohemiancoding.com/sketch/ns">
    <!-- Generator: Sketch 3.2.2 (9983) - http://www.bohemiancoding.com/sketch -->
    <title>Artboard 12</title>
    <desc>Created with Sketch.</desc>
    <defs></defs>
    <g id="Website-Assets" stroke="none" stroke-width="1" fill="none" fill-rule="evenodd" sketch:type="MSPage">
        <g id="Artboard-12" sketch:type="MSArtboardGroup" fill="#FFFFFF">
            <g id="Shape-+-Shape" sketch:type="MSLayerGroup" transform="translate(2.000000, 2.000000)">
                <path d="M15.6133333,9 C14.9933333,9 14.58,9.4 14.58,10 L14.58,14.4 L10.0333333,14.4 C9.41333333,14.4 9,14.8 9,15.4 C9,16 9.41333333,16.4 10.0333333,16.4 L14.58,16.4 L14.58,20.8 C14.58,21.4 14.9933333,21.8 15.6133333,21.8 C16.2333333,21.8 16.6466667,21.4 16.6466667,20.8 L16.6466667,16.4 L21.1933333,16.4 C21.8133333,16.4 22.2266667,16 22.2266667,15.4 C22.2266667,14.8 21.8133333,14.4 21.1933333,14.4 L16.6466667,14.4 L16.6466667,10 C16.6466667,9.5 16.2333333,9 15.6133333,9 L15.6133333,9 Z" id="Shape" sketch:type="MSShapeGroup"></path>
                <path d="M15.3966667,7.46069873e-13 C12.4,7.46069873e-13 9.50666667,0.823920266 7.02666667,2.4717608 C6.51,2.7807309 6.40666667,3.3986711 6.71666667,3.91362126 C7.02666667,4.42857143 7.64666667,4.53156146 8.16333333,4.22259136 C10.3333333,2.88372093 12.8133333,2.1627907 15.3966667,2.1627907 C22.8366667,2.1627907 28.83,8.13621262 28.83,15.551495 C28.83,22.9667774 22.8366667,28.9401993 15.3966667,28.9401993 C7.95666667,28.9401993 1.96333333,22.9667774 1.96333333,15.551495 C1.96333333,12.6677741 2.89333333,9.99003322 4.54666667,7.72425249 C4.85666667,7.31229236 4.75333333,6.59136213 4.34,6.28239203 C3.92666667,5.97342193 3.20333333,6.07641196 2.89333333,6.48837209 C0.93,9.16611296 -3.74811293e-13,12.255814 -3.74811293e-13,15.551495 C-3.74811293e-13,24.0996678 6.92333333,31 15.5,31 C24.0766667,31 31,24.0996678 31,15.551495 C31,7.00332226 23.9733333,7.46069873e-13 15.3966667,7.46069873e-13 L15.3966667,7.46069873e-13 Z" id="Shape" sketch:type="MSShapeGroup"></path>
            </g>
        </g>
    </g>
</svg>