<?xml version="1.0" encoding="UTF-8" standalone="no"?>
<svg width="35px" height="35px" viewBox="0 0 35 35" version="1.1" xmlns="http://www.w3.org/2000/svg" xmlns:xlink="http://www.w3.org/1999/xlink" xmlns:sketch="http://www.bohemiancoding.com/sketch/ns">
    <!-- Generator: Sketch 3.2.2 (9983) - http://www.bohemiancoding.com/sketch -->
    <title>Artboard 10</title>
    <desc>Created with Sketch.</desc>
    <defs></defs>
    <g id="Website-Assets" stroke="none" stroke-width="1" fill="none" fill-rule="evenodd" sketch:type="MSPage">
        <g id="Artboard-10" sketch:type="MSArtboardGroup" fill="#FFFFFF">
            <g id="Shape-+-Shape" sketch:type="MSLayerGroup" transform="translate(7.000000, 2.000000)">
                <g id="Shape" sketch:type="MSShapeGroup">
                    <path d="M19.9,10.1 L15.6,10.1 C15,10.1 14.6,10.5 14.6,11.1 C14.6,11.7 15,12.1 15.6,12.1 L18.9,12.1 L18.9,28.3 L2.7,28.3 L2.7,12.1 L6.1,12.1 C6.7,12.1 7.1,11.7 7.1,11.1 C7.1,10.5 6.7,10.1 6.1,10.1 L1.7,10.1 C1.1,10.1 0.7,10.5 0.7,11.1 L0.7,29.3 C0.7,29.9 1.1,30.3 1.7,30.3 L19.9,30.3 C20.5,30.3 20.9,29.9 20.9,29.3 L20.9,11.1 C20.9,10.5 20.5,10.1 19.9,10.1 L19.9,10.1 Z"></path>
                    <path d="M5.9,5.1 L9.9,2.9 L9.9,17.1 C9.9,17.7 10.3,18.1 10.9,18.1 C11.5,18.1 11.9,17.7 11.9,17.1 L11.9,2.9 L15.9,5.1 C16.4,5.4 17,5.2 17.3,4.7 C17.6,4.2 17.4,3.6 16.9,3.3 L11.4,0.3 L11.3,0.3 L11.2,0.3 L11,0.3 L10.9,0.3 L10.8,0.3 L10.7,0.3 L10.6,0.3 L10.5,0.3 L5,3.3 C4.5,3.6 4.3,4.2 4.6,4.7 C4.9,5.2 5.4,5.4 5.9,5.1 L5.9,5.1 Z"></path>
                </g>
            </g>
        </g>
    </g>
</svg>