<?xml version="1.0" encoding="UTF-8" standalone="no"?>
<svg width="35px" height="35px" viewBox="0 0 35 35" version="1.1" xmlns="http://www.w3.org/2000/svg" xmlns:xlink="http://www.w3.org/1999/xlink" xmlns:sketch="http://www.bohemiancoding.com/sketch/ns">
    <!-- Generator: Sketch 3.2.2 (9983) - http://www.bohemiancoding.com/sketch -->
    <title>Artboard 9</title>
    <desc>Created with Sketch.</desc>
    <defs></defs>
    <g id="Website-Assets" stroke="none" stroke-width="1" fill="none" fill-rule="evenodd" sketch:type="MSPage">
        <g id="Artboard-9" sketch:type="MSArtboardGroup" fill="#FFFFFF">
            <g id="Shape-+-Shape" sketch:type="MSLayerGroup" transform="translate(3.000000, 2.000000)">
                <g id="Shape" sketch:type="MSShapeGroup">
                    <path d="M3.5,2.2 L13.9,7.1 C14,7.2 14.2,7.2 14.3,7.2 C14.4,7.2 14.6,7.2 14.7,7.1 L25.1,2.2 C25.6,2 25.8,1.4 25.6,0.9 C25.4,0.4 24.8,0.2 24.3,0.4 L14.3,5.1 L4.4,0.4 C3.9,0.2 3.3,0.4 3.1,0.9 C2.7,1.3 3,1.9 3.5,2.2 L3.5,2.2 Z"></path>
                    <path d="M27.6,3.7 C27.3,3.5 27,3.5 26.6,3.6 L14.2,9.1 L1.8,3.6 C1.5,3.5 1.1,3.5 0.8,3.7 C0.5,3.9 0.3,4.2 0.3,4.5 L0.3,23.2 C0.3,23.6 0.5,23.9 0.9,24.1 L13.7,30.1 L13.8,30.1 C13.9,30.1 14,30.2 14.2,30.2 L14.2,30.2 C14.3,30.2 14.5,30.2 14.6,30.1 L14.7,30.1 L27.5,24.1 C27.9,23.9 28.1,23.6 28.1,23.2 L28.1,4.6 C28.1,4.2 27.9,3.9 27.6,3.7 L27.6,3.7 Z M13.3,27.7 L2.5,22.6 L2.5,6.1 L13.3,10.9 L13.3,27.7 L13.3,27.7 Z M26.1,22.6 L15.3,27.7 L15.3,11 L26.1,6.2 L26.1,22.6 L26.1,22.6 Z"></path>
                </g>
            </g>
        </g>
    </g>
</svg>