<?xml version="1.0" encoding="UTF-8" standalone="no"?>
<svg width="35px" height="35px" viewBox="0 0 35 35" version="1.1" xmlns="http://www.w3.org/2000/svg" xmlns:xlink="http://www.w3.org/1999/xlink" xmlns:sketch="http://www.bohemiancoding.com/sketch/ns">
    <!-- Generator: Sketch 3.2.2 (9983) - http://www.bohemiancoding.com/sketch -->
    <title>Artboard 11</title>
    <desc>Created with Sketch.</desc>
    <defs></defs>
    <g id="Website-Assets" stroke="none" stroke-width="1" fill="none" fill-rule="evenodd" sketch:type="MSPage">
        <g id="Artboard-11" sketch:type="MSArtboardGroup" fill="#FFFFFF">
            <g id="Shape-+-Shape" sketch:type="MSLayerGroup" transform="translate(2.000000, 2.000000)">
                <g id="Shape" sketch:type="MSShapeGroup">
                    <path d="M24.9,0.5 C24.5,0.1 23.9,0.1 23.5,0.5 L19.8,4.2 C19.4,4.6 19.4,5.2 19.8,5.6 L24.8,10.6 C25,10.8 25.3,10.9 25.5,10.9 C25.7,10.9 26,10.8 26.2,10.6 L30,7 C30.2,6.8 30.3,6.6 30.3,6.3 C30.3,6 30.2,5.8 30,5.6 L24.9,0.5 L24.9,0.5 Z M25.6,8.5 L22,4.9 L24.2,2.7 L27.8,6.3 L25.6,8.5 L25.6,8.5 Z"></path>
                    <path d="M18.3,7.1 C17.9,6.7 17.3,6.7 16.9,7.1 L0.6,23.5 C0.4,23.7 0.3,24 0.3,24.3 L0.7,29 C0.7,29.5 1.1,29.9 1.6,29.9 L6.3,30.3 L6.4,30.3 C6.7,30.3 6.9,30.2 7.1,30 L23.5,13.6 C23.9,13.2 23.9,12.6 23.5,12.2 L18.3,7.1 L18.3,7.1 Z M5.9,28.2 L2.6,27.9 L2.3,24.6 L17.6,9.3 L21.2,12.9 L5.9,28.2 L5.9,28.2 Z"></path>
                </g>
            </g>
        </g>
    </g>
</svg>