<?xml version="1.0" encoding="UTF-8" standalone="no"?>
<svg width="400px" height="400px" viewBox="0 0 400 400" version="1.1" xmlns="http://www.w3.org/2000/svg" xmlns:xlink="http://www.w3.org/1999/xlink" xmlns:sketch="http://www.bohemiancoding.com/sketch/ns">
    <!-- Generator: Sketch 3.2.2 (9983) - http://www.bohemiancoding.com/sketch -->
    <title>Splash Screen 3</title>
    <desc>Created with Sketch.</desc>
    <defs></defs>
    <g id="Splash-screens" stroke="none" stroke-width="1" fill="none" fill-rule="evenodd" sketch:type="MSPage">
        <g id="Splash-Screen-3" sketch:type="MSArtboardGroup" fill="#0000AA">
            <g id="Imported-Layers" sketch:type="MSLayerGroup" transform="translate(1.000000, 1.000000)">
                <path d="M85.9210811,257.330811 C83.4345946,259.371892 80.6172973,260.762162 77.5427027,261.458378 C65.0432432,264.288649 52.1935135,254.662703 48.8702703,240.001081 C47.2378378,232.792432 48.1308108,225.490811 51.3913514,219.443243 C54.5437838,213.592432 59.5491892,209.629189 65.4864865,208.282162 C68.9048649,207.508108 72.3794595,207.637838 75.8237838,208.662703 C78.1113514,209.343784 80.52,208.042162 81.2032432,205.752432 C81.8821622,203.464865 80.5805405,201.056216 78.2908108,200.372973 C73.4064865,198.917838 68.4551351,198.742703 63.5772973,199.847568 C55.1643243,201.752432 48.132973,207.255135 43.7762162,215.341622 C39.5254054,223.229189 38.3405405,232.667027 40.4356757,241.914595 C44.2778378,258.859459 58.2216216,270.597838 73.16,270.597838 C75.2464865,270.597838 77.3524324,270.368649 79.4540541,269.892973 C83.8540541,268.896216 87.8778378,266.917838 91.4108108,264.014054 C93.2551351,262.498378 93.5232432,259.771892 92.0075676,257.927568 C90.4897297,256.078919 87.7632432,255.812973 85.9210811,257.330811" id="Fill-1" sketch:type="MSShapeGroup"></path>
                <path d="M79.947027,225.585946 C80.6821622,223.315676 79.4367568,220.876757 77.1621622,220.141622 C74.8962162,219.408649 72.452973,220.654054 71.7178378,222.926486 L70.0940541,227.947027 L65.6918919,225.038919 C63.7005405,223.72 61.0172973,224.271351 59.7005405,226.260541 C58.3837838,228.254054 58.932973,230.937297 60.9243243,232.251892 L67.332973,236.487568 L64.9697297,243.795676 C64.2345946,246.068108 65.48,248.504865 67.7524324,249.24 C68.1956757,249.382703 68.6432432,249.451892 69.0843243,249.451892 C70.9091892,249.451892 72.6064865,248.286486 73.1967568,246.455135 L74.8205405,241.434595 L79.2227027,244.344865 C79.9578378,244.829189 80.7859459,245.060541 81.6032432,245.060541 C83.0086486,245.060541 84.3837838,244.379459 85.2162162,243.121081 C86.5308108,241.127568 85.9837838,238.446486 83.9924324,237.12973 L77.5837838,232.894054 L79.947027,225.585946" id="Fill-2" sketch:type="MSShapeGroup"></path>
                <path d="M340.364324,224.747027 C338.509189,224.295135 336.561081,225.121081 335.598919,226.781622 C323.752432,247.255135 308.178378,261.657297 289.311351,269.585946 C270.39027,277.538378 244.344865,282.848649 217.851892,284.156757 C216.301622,284.232432 214.909189,285.136216 214.206486,286.522162 C213.505946,287.91027 213.601081,289.564324 214.459459,290.861622 C229.082162,312.963243 245.696216,323.257297 266.749189,323.259459 L266.751351,323.259459 C268.275676,323.259459 269.845405,323.203243 271.419459,323.092973 C308.241081,320.524324 346.554595,289.903784 343.661622,228.744865 C343.570811,226.827027 342.228108,225.201081 340.364324,224.747027 L340.364324,224.747027 Z M270.818378,314.465946 C269.443243,314.561081 268.076757,314.610811 266.751351,314.610811 L266.749189,314.610811 C250.64973,314.608649 237.882162,307.67027 226.083243,292.295135 C250.818378,290.36 274.72973,285.095135 292.662703,277.557838 C309.084324,270.658378 323.175135,259.361081 334.701622,243.884324 C331.579459,278.182703 311.683243,311.614054 270.818378,314.465946 L270.818378,314.465946 Z" id="Fill-3" sketch:type="MSShapeGroup"></path>
                <path d="M207.233514,154.993514 C206.876757,152.632432 204.677838,151.010811 202.312432,151.363243 C177.730811,155.073514 171.495135,176.262703 171.631351,186.95027 C171.661622,189.32 173.59027,191.211892 175.953514,191.211892 L175.994595,191.211892 C178.377297,191.19027 180.292973,189.235676 180.28,186.855135 C180.273514,185.899459 180.414054,163.415135 203.601081,159.914595 C205.964324,159.557838 207.59027,157.354595 207.233514,154.993514" id="Fill-4" sketch:type="MSShapeGroup"></path>
                <path d="M275.704865,130.465946 C275.875676,130.388108 293.112432,122.785946 306.612973,136.636757 C307.460541,137.508108 308.584865,137.942703 309.709189,137.942703 C310.796757,137.942703 311.886486,137.534054 312.727568,136.714595 C314.437838,135.04973 314.472432,132.31027 312.805405,130.6 C298.64973,116.076757 280.007568,119.010811 272.124324,122.591351 C269.951351,123.579459 268.989189,126.143784 269.977297,128.318919 C270.965405,130.491892 273.52973,131.456216 275.704865,130.465946" id="Fill-5" sketch:type="MSShapeGroup"></path>
                <path d="M293.157838,158.552432 C288.991351,159.756757 286.917838,165.244324 288.526486,170.807568 C290.135135,176.370811 294.818378,179.905946 298.982703,178.701622 C303.149189,177.497297 305.222703,172.00973 303.614054,166.446486 C302.005405,160.883243 297.324324,157.348108 293.157838,158.552432" id="Fill-6" sketch:type="MSShapeGroup"></path>
                <path d="M217.553514,206.327568 C221.72,205.123243 223.793514,199.635676 222.184865,194.072432 C220.576216,188.509189 215.895135,184.974054 211.728649,186.178378 C207.562162,187.382703 205.488649,192.87027 207.097297,198.433514 C208.705946,203.998919 213.389189,207.531892 217.553514,206.327568" id="Fill-7" sketch:type="MSShapeGroup"></path>
                <path d="M263.023784,208.980541 C263.871351,210.993514 266.091892,212.057297 268.187027,211.458378 C277.11027,208.930811 285.931892,212.401081 287.864865,219.201081 C289.795676,226.003243 284.111351,233.596757 275.192432,236.128649 C274.042162,236.455135 272.865946,236.688649 271.696216,236.820541 C269.322162,237.086486 267.616216,239.229189 267.884324,241.601081 C268.132973,243.810811 270.003243,245.441081 272.176216,245.441081 C272.336216,245.441081 272.500541,245.432432 272.664865,245.412973 C274.305946,245.229189 275.951351,244.904865 277.555676,244.446486 C291.060541,240.612973 299.417297,228.228108 296.182703,216.84 C293.250811,206.513514 281.776216,200.498378 269.598919,202.323243 L259.015135,177.255135 C258.087568,175.054054 255.551351,174.022703 253.35027,174.952432 C251.151351,175.882162 250.12,178.418378 251.04973,180.617297 L263.023784,208.980541" id="Fill-8" sketch:type="MSShapeGroup"></path>
                <path d="M217.540541,249.68973 C219.715676,249.68973 221.48,247.925405 221.48,245.75027 C221.48,243.572973 219.715676,241.808649 217.540541,241.808649 C215.363243,241.808649 213.598919,243.572973 213.598919,245.75027 C213.598919,247.925405 215.363243,249.68973 217.540541,249.68973" id="Fill-9" sketch:type="MSShapeGroup"></path>
                <path d="M219.51027,233.927568 C219.51027,236.104865 221.274595,237.869189 223.44973,237.869189 C225.627027,237.869189 227.391351,236.104865 227.391351,233.927568 C227.391351,231.752432 225.627027,229.985946 223.44973,229.985946 C221.274595,229.985946 219.51027,231.752432 219.51027,233.927568" id="Fill-10" sketch:type="MSShapeGroup"></path>
                <path d="M231.332973,247.72 C233.508108,247.72 235.272432,245.955676 235.272432,243.778378 C235.272432,241.603243 233.508108,239.838919 231.332973,239.838919 C229.155676,239.838919 227.391351,241.603243 227.391351,243.778378 C227.391351,245.955676 229.155676,247.72 231.332973,247.72" id="Fill-11" sketch:type="MSShapeGroup"></path>
                <path d="M316.31027,205.196757 C318.219459,206.241081 320.615135,205.538378 321.657297,203.627027 C322.701622,201.717838 321.998919,199.324324 320.087568,198.28 C318.178378,197.237838 315.784865,197.940541 314.740541,199.84973 C313.698378,201.758919 314.401081,204.154595 316.31027,205.196757" id="Fill-12" sketch:type="MSShapeGroup"></path>
                <path d="M325.417297,195.194595 C327.328649,196.238919 329.722162,195.536216 330.764324,193.624865 C331.808649,191.715676 331.105946,189.322162 329.194595,188.277838 C327.285405,187.235676 324.891892,187.938378 323.847568,189.847568 C322.805405,191.758919 323.508108,194.152432 325.417297,195.194595" id="Fill-13" sketch:type="MSShapeGroup"></path>
                <path d="M327.789189,200.79027 C326.747027,202.701622 327.44973,205.095135 329.358919,206.139459 C331.268108,207.181622 333.663784,206.478919 334.705946,204.56973 C335.75027,202.658378 335.047568,200.264865 333.136216,199.222703 C331.227027,198.178378 328.833514,198.881081 327.789189,200.79027" id="Fill-14" sketch:type="MSShapeGroup"></path>
                <path d="M362.619459,85.4994595 C356.820541,77.1924324 350.338378,69.2681081 343.352432,61.947027 C318.755676,36.1697297 287.726486,17.4497297 253.620541,7.81297297 L252.565405,7.51459459 C251.237838,7.13621622 249.91027,6.75783784 248.567568,6.41621622 L248.563243,6.41621622 C240.076757,4.26054054 231.304865,2.65189189 222.487568,1.63351351 L222.485405,1.63351351 L222.478919,1.63351351 L222.476757,1.63351351 L222.024865,1.58594595 C222.020541,1.58594595 222.018378,1.58810811 222.014054,1.58594595 C222.011892,1.58594595 222.00973,1.58378378 222.007568,1.58378378 C213.08,0.576216216 204.148108,0.176216216 195.436757,0.347027027 C185.914595,0.535135135 176.334054,1.41297297 166.965405,2.95027027 C156.15027,4.72756757 145.454054,7.40648649 135.179459,10.9113514 C97.6572973,23.7135135 65.08,47.252973 40.9675676,78.9891892 C34.8075676,87.0972973 29.2508108,95.6962162 24.4486486,104.552432 C20.36,112.098378 16.7102703,120.04 13.6054054,128.154595 C13.6054054,128.156757 13.6054054,128.161081 13.6032432,128.163243 C10.7427027,135.64 8.31459459,143.367568 6.38810811,151.131892 C4.51351351,158.68 3.07567568,166.36 2.11135135,173.96 C1.05621622,182.282162 0.522162162,190.779459 0.522162162,199.216216 C0.522162162,308.900541 89.7567568,398.135135 199.441081,398.135135 C309.125405,398.135135 398.36,308.900541 398.36,199.216216 C398.36,158.308108 386.001081,118.984865 362.619459,85.4994595 L362.619459,85.4994595 Z M33.1751351,168.805405 C32.28,168.894054 31.3827027,168.961081 30.4875676,169.041081 C28.6540541,169.205405 26.8183784,169.361081 24.9805405,169.488649 C23.9383784,169.56 22.8962162,169.618378 21.8540541,169.678919 C20.1437838,169.778378 18.4313514,169.867027 16.7210811,169.936216 C15.6572973,169.977297 14.5935135,170.014054 13.5297297,170.044324 C12.8162162,170.065946 12.1027027,170.07027 11.3891892,170.085405 C12.0940541,165.527568 12.9718919,160.958919 14.0140541,156.424865 C14.7318919,156.405405 15.4497297,156.364324 16.1675676,156.338378 C17.1362162,156.301622 18.1027027,156.264865 19.0713514,156.219459 C20.452973,156.152432 21.8324324,156.07027 23.2118919,155.981622 C24.12,155.923243 25.0281081,155.871351 25.9340541,155.802162 C27.4540541,155.68973 28.9675676,155.553514 30.4832432,155.412973 C31.2486486,155.343784 32.0140541,155.283243 32.7772973,155.205405 C35.0497297,154.976216 37.3156757,154.721081 39.5708108,154.431351 C129.11027,142.92 203.20973,85.3351351 225.077838,10.7016216 C230.801081,11.4713514 236.491892,12.4745946 242.07027,13.7481081 C241.92973,14.212973 241.802162,14.6778378 241.657297,15.1448649 C241.415135,15.9254054 241.162162,16.7081081 240.907027,17.4908108 C240.472432,18.8227027 240.020541,20.1545946 239.549189,21.4843243 C239.274595,22.267027 239,23.0475676 238.712432,23.8281081 C238.191351,25.2421622 237.642162,26.6540541 237.082162,28.0659459 C236.814054,28.7405405 236.558919,29.4151351 236.284324,30.0875676 C235.432432,32.1610811 234.55027,34.2324324 233.618378,36.292973 C201.96,106.286486 128.267027,156.71027 41.3005405,167.888649 C38.6021622,168.236757 35.8908108,168.535135 33.1751351,168.805405 L33.1751351,168.805405 Z M30.9783784,110.686486 C31.9513514,110.587027 32.9264865,110.483243 33.9059459,110.357838 C35.9102703,110.100541 37.9037838,109.810811 39.8886486,109.492973 C40.5524324,109.387027 41.2097297,109.257297 41.8735135,109.144865 C43.1881081,108.92 44.5048649,108.699459 45.8086486,108.448649 C46.5827027,108.299459 47.3459459,108.126486 48.1156757,107.968649 C49.2983784,107.726486 50.4832432,107.492973 51.6572973,107.229189 C52.4767568,107.045405 53.2854054,106.837838 54.1027027,106.643243 C55.2140541,106.377297 56.3318919,106.12 57.4345946,105.836757 C58.2562162,105.624865 59.067027,105.389189 59.8843243,105.168649 C60.9697297,104.872432 62.0594595,104.587027 63.1362162,104.273514 C63.96,104.033514 64.7708108,103.771892 65.5881081,103.521081 C66.6432432,103.198919 67.7048649,102.885405 68.7491892,102.543784 C69.572973,102.277838 70.3837838,101.988108 71.2010811,101.711351 C72.2281081,101.361081 73.2616216,101.019459 74.28,100.651892 C75.092973,100.36 75.8951351,100.046486 76.7016216,99.7437838 C77.7091892,99.3654054 78.7210811,98.9935135 79.7178378,98.6 C80.52,98.2821622 81.3113514,97.9448649 82.1091892,97.6183784 C83.0951351,97.2118919 84.0832432,96.8118919 85.0605405,96.3902703 C85.8432432,96.052973 86.612973,95.6962162 87.3913514,95.3481081 C88.3664865,94.9091892 89.3437838,94.4789189 90.3081081,94.0248649 C91.0713514,93.6659459 91.8237838,93.2897297 92.5805405,92.92 C93.5383784,92.4551351 94.4962162,91.9945946 95.4410811,91.5124324 C96.1935135,91.1318919 96.9308108,90.7318919 97.6745946,90.3405405 C98.6108108,89.8475676 99.5491892,89.3589189 100.472432,88.8508108 C101.205405,88.4486486 101.927568,88.0291892 102.651892,87.6183784 C103.566486,87.0972973 104.483243,86.5827027 105.384865,86.0486486 C106.104865,85.6227027 106.80973,85.1837838 107.521081,84.747027 C108.411892,84.2043243 109.304865,83.6616216 110.180541,83.1037838 C110.883243,82.6583784 111.572973,82.1978378 112.267027,81.7416216 C113.131892,81.172973 114.001081,80.6064865 114.855135,80.0227027 C115.538378,79.5556757 116.210811,79.0735135 116.887568,78.5978378 C117.728649,78.0054054 118.571892,77.412973 119.402162,76.8054054 C120.065946,76.3210811 120.718919,75.8216216 121.374054,75.3264865 C122.193514,74.7081081 123.012973,74.0918919 123.819459,73.4583784 C124.463784,72.9524324 125.097297,72.4356757 125.732973,71.9210811 C126.524324,71.2810811 127.315676,70.6410811 128.094054,69.9881081 C128.725405,69.4583784 129.343784,68.9178378 129.966486,68.3794595 C130.725405,67.72 131.484324,67.0627027 132.23027,66.3924324 C132.842162,65.8432432 133.443243,65.2810811 134.046486,64.7232432 C134.777297,64.0443243 135.508108,63.3654054 136.223784,62.6756757 C136.816216,62.1048649 137.397838,61.5232432 137.979459,60.9459459 C138.682162,60.2475676 139.382703,59.5491892 140.07027,58.84 C140.643243,58.2497297 141.203243,57.6486486 141.765405,57.0497297 C142.435676,56.3340541 143.105946,55.6183784 143.761081,54.8918919 C144.312432,54.2821622 144.850811,53.6616216 145.391351,53.0432432 C146.031351,52.3102703 146.669189,51.5772973 147.294054,50.8335135 C147.823784,50.2021622 148.342703,49.5621622 148.863784,48.9221622 C149.469189,48.1740541 150.072432,47.4259459 150.662703,46.6691892 C151.172973,46.0162162 151.67027,45.3545946 152.167568,44.6951351 C152.740541,43.9340541 153.311351,43.1708108 153.869189,42.3989189 C154.355676,41.7243243 154.831351,41.0432432 155.304865,40.3621622 C155.843243,39.5881081 156.377297,38.8140541 156.898378,38.0335135 C157.365405,37.332973 157.819459,36.6281081 158.273514,35.9232432 C158.775135,35.1427027 159.27027,34.3578378 159.756757,33.5686486 C160.197838,32.8464865 160.63027,32.12 161.060541,31.3913514 C161.525405,30.6 161.985946,29.8086486 162.433514,29.0086486 C162.852973,28.2648649 163.259459,27.5167568 163.663784,26.7664865 C164.094054,25.9664865 164.515676,25.1664865 164.928649,24.36 C165.322162,23.5924324 165.702703,22.8227027 166.081081,22.0486486 C166.474595,21.2443243 166.859459,20.4356757 167.237838,19.6227027 C167.601081,18.8335135 167.957838,18.0421622 168.305946,17.2464865 C168.662703,16.4356757 169.012973,15.6205405 169.352432,14.8032432 C169.68973,13.9902703 170.016216,13.1751351 170.336216,12.3556757 C170.502703,11.9340541 170.684324,11.5189189 170.846486,11.0951351 C177.028108,10.1632432 183.294054,9.53405405 189.562162,9.20972973 C189.557838,9.22054054 189.555676,9.22918919 189.553514,9.24 C189.425946,9.61837838 189.276757,9.98810811 189.144865,10.3643243 C188.619459,11.8735135 188.083243,13.3783784 187.505946,14.8681081 C187.242162,15.5491892 186.948108,16.2172973 186.673514,16.8918919 C186.197838,18.0681081 185.726486,19.2464865 185.218378,20.4097297 C184.883243,21.1751351 184.517838,21.9254054 184.16973,22.6843243 C183.685405,23.7437838 183.207568,24.8054054 182.695135,25.8540541 C182.303784,26.6540541 181.884324,27.4410811 181.477838,28.2367568 C180.971892,29.2291892 180.472432,30.2237838 179.942703,31.2054054 C179.505946,32.0118919 179.041081,32.8075676 178.589189,33.6075676 C178.050811,34.5610811 177.523243,35.5145946 176.963243,36.4572973 C176.485405,37.2616216 175.981622,38.052973 175.488649,38.8486486 C174.917838,39.7697297 174.355676,40.692973 173.765405,41.6032432 C173.248649,42.3989189 172.708108,43.1837838 172.174054,43.972973 C171.572973,44.8637838 170.974054,45.7567568 170.353514,46.6367568 C169.797838,47.4237838 169.222703,48.1978378 168.651892,48.9762162 C168.018378,49.8410811 167.387027,50.7059459 166.734054,51.56 C166.143784,52.3318919 165.534054,53.092973 164.928649,53.8562162 C164.262703,54.6951351 163.596757,55.5340541 162.913514,56.3621622 C162.286486,57.1210811 161.642162,57.8691892 161,58.6172973 C160.303784,59.4281081 159.60973,60.2410811 158.896216,61.0389189 C158.236757,61.7827027 157.56,62.5135135 156.883243,63.2464865 C156.156757,64.0335135 155.428108,64.8205405 154.684324,65.5967568 C153.994595,66.3189189 153.28973,67.0302703 152.582703,67.7416216 C151.825946,68.5048649 151.064865,69.2659459 150.290811,70.0183784 C149.566486,70.7210811 148.831351,71.4151351 148.094054,72.107027 C147.309189,72.8443243 146.517838,73.5772973 145.717838,74.3037838 C144.963243,74.9848649 144.197838,75.6594595 143.43027,76.3318919 C142.615135,77.0454054 141.795676,77.7524324 140.965405,78.452973 C140.184865,79.1102703 139.395676,79.7610811 138.6,80.4097297 C137.756757,81.0972973 136.904865,81.7805405 136.044324,82.4551351 C135.237838,83.0908108 134.422703,83.72 133.601081,84.3427027 C132.727568,85.0064865 131.84973,85.6616216 130.963243,86.3102703 C130.128649,86.9221622 129.287568,87.5275676 128.442162,88.1264865 C127.542703,88.7621622 126.634595,89.3913514 125.72,90.0140541 C124.861622,90.5978378 124.001081,91.1794595 123.12973,91.7524324 C122.202162,92.3621622 121.265946,92.9632432 120.325405,93.56 C119.443243,94.1178378 118.558919,94.6735135 117.665946,95.2205405 C116.712432,95.8021622 115.748108,96.3751351 114.781622,96.9437838 C113.88,97.4756757 112.976216,98.0032432 112.063784,98.5221622 C111.08,99.0778378 110.087568,99.6227027 109.092973,100.165405 C108.174054,100.667027 107.252973,101.166486 106.323243,101.655135 C105.311351,102.184865 104.288649,102.701622 103.263784,103.216216 C102.327568,103.687568 101.393514,104.161081 100.448649,104.617297 C99.4086486,105.118919 98.3578378,105.605405 97.3091892,106.091892 C96.3556757,106.532973 95.4064865,106.976216 94.4443243,107.404324 C93.3783784,107.877838 92.2994595,108.334054 91.2227027,108.79027 C90.2583784,109.198919 89.2962162,109.611892 88.3232432,110.007568 C87.2248649,110.452973 86.1156757,110.878919 85.0086486,111.307027 C84.0356757,111.683243 83.0648649,112.063784 82.0832432,112.427027 C80.9545946,112.844324 79.8108108,113.24 78.6713514,113.637838 C77.6940541,113.979459 76.7210811,114.32973 75.7372973,114.656216 C74.5762162,115.043243 73.4021622,115.404324 72.2324324,115.771892 C71.2486486,116.081081 70.267027,116.401081 69.2767568,116.695135 C68.0789189,117.051892 66.8659459,117.380541 65.6594595,117.717838 C64.6821622,117.99027 63.7113514,118.273514 62.7275676,118.532973 C61.4691892,118.863784 60.1956757,119.164324 58.9286486,119.473514 C57.9794595,119.704865 57.0367568,119.949189 56.0832432,120.167568 C54.7362162,120.474595 53.3783784,120.749189 52.0205405,121.032432 C51.1297297,121.218378 50.2454054,121.421622 49.3481081,121.596757 C47.8389189,121.890811 46.3167568,122.148108 44.7945946,122.411892 C44.0378378,122.541622 43.2875676,122.690811 42.5286486,122.814054 C40.2432432,123.183784 37.9448649,123.518919 35.6356757,123.815135 C32.9632432,124.158919 30.2583784,124.435676 27.5448649,124.682162 C26.9675676,124.734054 26.3881081,124.788108 25.8086486,124.835676 C25.2832432,124.878919 24.7556757,124.898378 24.2281081,124.939459 C26.2886486,120.078919 28.5459459,115.309189 30.9783784,110.686486 L30.9783784,110.686486 Z M46.9091892,85.4756757 C48.0421622,85.2140541 49.1535135,84.8962162 50.2756757,84.6086486 C51.4324324,84.3145946 52.5956757,84.0378378 53.7416216,83.7178378 C55.1448649,83.3264865 56.5264865,82.8897297 57.9124324,82.4616216 C59.0151351,82.12 60.1286486,81.7978378 61.2227027,81.4324324 C62.6345946,80.9610811 64.0227027,80.44 65.4151351,79.9318919 C66.4508108,79.5535135 67.4951351,79.1967568 68.52,78.7967568 C69.9643243,78.2345946 71.3783784,77.6205405 72.7989189,77.0151351 C73.7416216,76.6151351 74.6972973,76.2389189 75.627027,75.8216216 C77.1275676,75.147027 78.5935135,74.4205405 80.0637838,73.7027027 C80.8832432,73.3027027 81.72,72.9286486 82.5308108,72.5135135 C84.1827027,71.6702703 85.7935135,70.772973 87.4021622,69.8735135 C88.0010811,69.5405405 88.6151351,69.2335135 89.2075676,68.8918919 C93.5989189,66.36 97.8281081,63.6248649 101.871351,60.6994595 C102.234595,60.4378378 102.576216,60.1545946 102.935135,59.8886486 C104.571892,58.68 106.195676,57.4605405 107.76973,56.1891892 C108.385946,55.6940541 108.967568,55.1664865 109.572973,54.6605405 C110.852973,53.5902703 112.139459,52.5243243 113.374054,51.4151351 C114.065946,50.7902703 114.721081,50.1372973 115.397838,49.4994595 C116.500541,48.4681081 117.60973,47.4432432 118.671351,46.3794595 C119.376216,45.6724324 120.04,44.9372973 120.725405,44.2151351 C121.709189,43.1837838 122.701622,42.1589189 123.646486,41.0972973 C124.336216,40.3232432 124.984865,39.5232432 125.652973,38.7340541 C126.537297,37.6897297 127.432432,36.6540541 128.28,35.5859459 C128.941622,34.7491892 129.564324,33.8886486 130.204324,33.0367568 C130.997838,31.9816216 131.8,30.9308108 132.556757,29.8518919 C133.181622,28.9632432 133.763243,28.0508108 134.36,27.147027 C135.071351,26.0724324 135.791351,25.0021622 136.463784,23.9059459 C137.038919,22.9697297 137.575135,22.0140541 138.122162,21.0627027 C138.604324,20.2259459 139.123243,19.4043243 139.583784,18.5567568 C146.485405,16.2713514 153.579459,14.3772973 160.762162,12.8940541 C160.595676,13.2810811 160.435676,13.6724324 160.264865,14.0572973 C159.972973,14.7189189 159.674595,15.3783784 159.36973,16.0335135 C158.991351,16.852973 158.602162,17.6681081 158.204324,18.4789189 C157.886486,19.1275676 157.566486,19.7740541 157.237838,20.4162162 C156.824865,21.2248649 156.396757,22.0291892 155.966486,22.8291892 C155.627027,23.4583784 155.287568,24.0897297 154.937297,24.7145946 C154.483243,25.5210811 154.016216,26.3210811 153.544865,27.1189189 C153.19027,27.7221622 152.837838,28.3275676 152.472432,28.9264865 C151.972973,29.7416216 151.456216,30.5459459 150.939459,31.3502703 C150.576216,31.9189189 150.217297,32.4897297 149.843243,33.0540541 C149.285405,33.8951351 148.703784,34.7254054 148.126486,35.5556757 C147.76973,36.0659459 147.421622,36.5848649 147.058378,37.0908108 C146.39027,38.0227027 145.698378,38.9372973 145.004324,39.8540541 C144.705946,40.2475676 144.420541,40.6475676 144.117838,41.0389189 C143.108108,42.3427027 142.074595,43.6335135 141.012973,44.9048649 C140.982703,44.9437838 140.95027,44.9783784 140.917838,45.0172973 C139.890811,46.2475676 138.84,47.4627027 137.767568,48.6605405 C137.421622,49.0497297 137.060541,49.4259459 136.708108,49.8108108 C135.938378,50.6518919 135.168649,51.492973 134.377297,52.3210811 C133.940541,52.7751351 133.490811,53.2183784 133.04973,53.6681081 C132.321081,54.4075676 131.592432,55.1491892 130.846486,55.8756757 C130.357838,56.3513514 129.858378,56.8183784 129.361081,57.2875676 C128.641081,57.972973 127.918919,58.6562162 127.181622,59.3264865 C126.656216,59.8043243 126.122162,60.2735135 125.59027,60.7448649 C124.857297,61.3935135 124.122162,62.04 123.376216,62.6778378 C122.827027,63.1448649 122.269189,63.6054054 121.713514,64.0659459 C120.961081,64.6886486 120.206486,65.307027 119.441081,65.9167568 C118.87027,66.372973 118.292973,66.8227027 117.713514,67.2702703 C116.941622,67.8691892 116.163243,68.4616216 115.378378,69.0454054 C114.788108,69.4843243 114.195676,69.9210811 113.598919,70.3513514 C112.803243,70.9286486 111.998919,71.4972973 111.188108,72.0616216 C110.584865,72.4810811 109.981622,72.8983784 109.371892,73.3113514 C108.543784,73.8713514 107.704865,74.4227027 106.861622,74.9697297 C106.256216,75.3632432 105.648649,75.7589189 105.034595,76.1459459 C104.16973,76.6908108 103.294054,77.2248649 102.416216,77.7567568 C101.806486,78.1243243 101.198919,78.4983784 100.582703,78.8594595 C99.6681081,79.3978378 98.7405405,79.9210811 97.812973,80.4421622 C97.2183784,80.7751351 96.6302703,81.1145946 96.0313514,81.4432432 C95.0324324,81.9902703 94.0162162,82.5178378 93.0021622,83.0475676 C92.4594595,83.3286486 91.9254054,83.6183784 91.3805405,83.8951351 C90.2,84.4940541 89.0043243,85.0713514 87.8043243,85.6464865 C87.4108108,85.8345946 87.0237838,86.0313514 86.6281081,86.2172973 C83.4064865,87.7286486 80.12,89.1491892 76.7751351,90.4767568 C76.3145946,90.6583784 75.8475676,90.827027 75.3848649,91.0064865 C74.1762162,91.4735135 72.9675676,91.9383784 71.7437838,92.3794595 C71.1405405,92.5978378 70.5264865,92.8032432 69.9189189,93.0151351 C68.8248649,93.3978378 67.732973,93.7805405 66.6281081,94.1416216 C65.9535135,94.3621622 65.2724324,94.5697297 64.5956757,94.7837838 C63.5448649,95.1145946 62.4940541,95.4454054 61.4324324,95.7567568 C60.7145946,95.9686486 59.9902703,96.1697297 59.2681081,96.372973 C58.2324324,96.6648649 57.1967568,96.9524324 56.1545946,97.227027 C55.4086486,97.4216216 54.6605405,97.6075676 53.9102703,97.7956757 C52.8789189,98.0508108 51.8454054,98.3037838 50.8054054,98.5437838 C50.0378378,98.7189189 49.2681081,98.8897297 48.4983784,99.0562162 C47.4627027,99.2810811 46.4227027,99.4994595 45.3805405,99.707027 C44.5978378,99.8627027 43.8172973,100.014054 43.0324324,100.158919 C41.9859459,100.353514 40.9351351,100.537297 39.8821622,100.712432 C39.0951351,100.846486 38.3059459,100.976216 37.5145946,101.099459 C37.1059459,101.162162 36.6951351,101.216216 36.2864865,101.276757 C39.5513514,95.8562162 43.1059459,90.5675676 46.9091892,85.4756757 L46.9091892,85.4756757 Z M245.077838,31.3654054 C245.67027,29.8735135 246.247568,28.3816216 246.798919,26.8875676 C247.086486,26.1091892 247.365405,25.3286486 247.642162,24.5481081 C248.154595,23.0972973 248.645405,21.6486486 249.118919,20.1978378 C249.361081,19.4583784 249.605405,18.7189189 249.836757,17.9794595 C249.949189,17.6140541 250.078919,17.2486486 250.191351,16.8854054 C250.273514,17.0324324 250.355676,17.1643243 250.437838,17.3091892 C250.796757,17.9405405 251.155676,18.5545946 251.51027,19.1513514 C251.637838,19.3654054 251.767568,19.5816216 251.895135,19.7913514 C252.364324,20.5632432 252.833514,21.3156757 253.304865,22.0356757 C254.433514,23.7654054 255.618378,25.4540541 256.848649,27.1016216 C257.235676,27.6183784 257.659459,28.107027 258.057297,28.6151351 C258.922162,29.7264865 259.780541,30.8421622 260.690811,31.9124324 C261.194595,32.5048649 261.737297,33.0627027 262.256216,33.6421622 C263.101622,34.5913514 263.936216,35.5513514 264.818378,36.4659459 C265.4,37.0691892 266.018378,37.6356757 266.617297,38.2237838 C267.477838,39.0713514 268.325405,39.9340541 269.218378,40.7513514 C269.862703,41.3416216 270.543784,41.8951351 271.205405,42.4702703 C272.091892,43.2421622 272.967568,44.0248649 273.882162,44.7664865 C274.576216,45.3286486 275.304865,45.8540541 276.016216,46.3989189 C276.937297,47.1059459 277.847568,47.8259459 278.794595,48.5027027 C279.540541,49.0345946 280.314595,49.5275676 281.073514,50.04 C282.027027,50.6843243 282.96973,51.3394595 283.947027,51.9535135 C284.738378,52.4508108 285.557838,52.9091892 286.364324,53.387027 C287.348108,53.9686486 288.321081,54.5632432 289.324324,55.1145946 C290.158919,55.572973 291.021622,55.9924324 291.871351,56.4313514 C292.883243,56.9524324 293.886486,57.4864865 294.917838,57.9772973 C295.791351,58.3945946 296.690811,58.772973 297.579459,59.1686486 C298.621622,59.6313514 299.655135,60.1048649 300.716757,60.5394595 C301.627027,60.9091892 302.558919,61.2443243 303.482162,61.5924324 C304.552432,61.9989189 305.618378,62.4140541 306.708108,62.7902703 C307.650811,63.1145946 308.617297,63.4021622 309.572973,63.7048649 C310.671351,64.052973 311.763243,64.4075676 312.878919,64.7254054 C313.856216,65.0021622 314.850811,65.2421622 315.838919,65.4951351 C316.961081,65.7848649 318.081081,66.0810811 319.218378,66.3383784 C320.223784,66.5654054 321.246486,66.7556757 322.264865,66.9589189 C323.412973,67.1881081 324.556757,67.4237838 325.717838,67.6227027 C326.751351,67.7978378 327.797838,67.9383784 328.84,68.0897297 C330.00973,68.2583784 331.177297,68.4335135 332.362162,68.5718919 C333.419459,68.6951351 334.487568,68.7816216 335.553514,68.8810811 C336.442162,68.9610811 337.32,69.0735135 338.215135,69.1362162 C338.945946,69.9167568 339.665946,70.7081081 340.383784,71.4994595 C341.062703,72.2475676 341.748108,72.987027 342.414054,73.7459459 C343.345946,74.8075676 344.251892,75.892973 345.162162,76.9783784 C345.771892,77.7027027 346.392432,78.4183784 346.991351,79.1535135 C347.542703,79.8324324 348.07027,80.5286486 348.612973,81.2140541 C305.44973,81.5664865 266.952432,63.947027 244.331892,33.2572973 C244.591351,32.6281081 244.827027,31.9967568 245.077838,31.3654054 L245.077838,31.3654054 Z M328.126486,59.2659459 C327.676757,59.1945946 327.237838,59.0994595 326.792432,59.0216216 C325.335135,58.7686486 323.886486,58.4983784 322.452973,58.1935135 C321.784865,58.0508108 321.127568,57.8886486 320.465946,57.732973 C319.263784,57.4540541 318.07027,57.1643243 316.887568,56.8486486 C316.184865,56.6605405 315.486486,56.4616216 314.792432,56.2605405 C313.650811,55.9318919 312.52,55.5837838 311.397838,55.2205405 C310.723243,55.0021622 310.048649,54.7816216 309.380541,54.5502703 C308.210811,54.1459459 307.058378,53.7135135 305.91027,53.2724324 C305.328649,53.0475676 304.740541,52.8335135 304.165405,52.6 C302.695135,52.0010811 301.248649,51.3697297 299.817297,50.7102703 C299.59027,50.6043243 299.356757,50.5113514 299.12973,50.4054054 C297.475676,49.6291892 295.854054,48.8054054 294.258378,47.947027 C293.8,47.7005405 293.358919,47.4345946 292.904865,47.1816216 C291.778378,46.5524324 290.660541,45.9124324 289.564324,45.2421622 C289.006486,44.9005405 288.459459,44.5459459 287.91027,44.1935135 C286.937297,43.572973 285.975135,42.9372973 285.03027,42.2843243 C284.47027,41.8972973 283.914595,41.5037838 283.363243,41.1059459 C282.435676,40.4335135 281.527568,39.7459459 280.628108,39.0432432 C280.113514,38.6410811 279.594595,38.2432432 279.090811,37.8302703 C278.124324,37.0432432 277.183784,36.2302703 276.251892,35.4064865 C275.854054,35.0540541 275.443243,34.7124324 275.051892,34.3535135 C273.743784,33.1556757 272.468108,31.9275676 271.233514,30.6562162 C271.127568,30.5481081 271.028108,30.4291892 270.922162,30.3189189 C269.804324,29.1556757 268.718919,27.9621622 267.663784,26.7405405 C267.287568,26.3037838 266.928649,25.8497297 266.561081,25.4064865 C265.795676,24.4832432 265.041081,23.5513514 264.312432,22.5978378 C263.912432,22.0724324 263.523243,21.5362162 263.134054,21 C262.79027,20.5286486 262.461622,20.0443243 262.128649,19.5643243 C286.617297,28.1135135 309.162162,41.6464865 328.316757,59.2918919 C328.254054,59.2832432 328.189189,59.2767568 328.126486,59.2659459 L328.126486,59.2659459 Z M216.353514,9.70702703 C216.221622,10.1394595 216.100541,10.5762162 215.966486,11.0064865 C215.627027,12.0962162 215.265946,13.1772973 214.902703,14.2583784 C214.522162,15.387027 214.137297,16.5135135 213.730811,17.6335135 C213.345946,18.7016216 212.941622,19.7654054 212.530811,20.8248649 C212.100541,21.9405405 211.663784,23.0540541 211.207568,24.1589189 C210.775135,25.2097297 210.327568,26.2540541 209.871351,27.2940541 C209.393514,28.3902703 208.909189,29.4843243 208.405405,30.5697297 C207.927568,31.6010811 207.436757,32.6281081 206.937297,33.652973 C206.40973,34.7297297 205.875676,35.8043243 205.326486,36.8724324 C204.805405,37.8843243 204.271351,38.8897297 203.730811,39.892973 C203.157838,40.9524324 202.574054,42.0075676 201.977297,43.0562162 C201.415135,44.0443243 200.842162,45.0302703 200.260541,46.0097297 C199.64,47.0497297 199.010811,48.0854054 198.368649,49.1167568 C197.763243,50.0854054 197.151351,51.0475676 196.528649,52.0054054 C195.864865,53.0237838 195.192432,54.0356757 194.507027,55.0410811 C193.862703,55.9881081 193.20973,56.932973 192.545946,57.8691892 C191.838919,58.8659459 191.121081,59.8562162 190.392432,60.84 C189.709189,61.7632432 189.021622,62.6821622 188.321081,63.5924324 C187.570811,64.5675676 186.807568,65.5362162 186.035676,66.4983784 C185.317838,67.3956757 184.591351,68.2908108 183.854054,69.1794595 C183.062703,70.1308108 182.256216,71.0735135 181.445405,72.0118919 C180.688649,72.8832432 179.92973,73.7545946 179.157838,74.6151351 C178.325405,75.5427027 177.477838,76.4594595 176.625946,77.3740541 C175.834595,78.2216216 175.041081,79.067027 174.232432,79.9037838 C173.361081,80.8054054 172.474595,81.6940541 171.583784,82.5805405 C170.757838,83.4021622 169.931892,84.2237838 169.090811,85.0324324 C168.180541,85.9081081 167.255135,86.7708108 166.325405,87.6291892 C165.467027,88.4248649 164.608649,89.2205405 163.732973,90.0032432 C162.785946,90.8486486 161.823784,91.6810811 160.859459,92.5135135 C159.968649,93.2789189 159.08,94.0486486 158.174054,94.8010811 C157.19027,95.6205405 156.187027,96.427027 155.183784,97.2313514 C154.264865,97.9686486 153.348108,98.7059459 152.414054,99.4302703 C151.393514,100.221622 150.355676,100.993514 149.317838,101.76973 C148.368649,102.476757 147.423784,103.185946 146.459459,103.88 C145.402162,104.643243 144.327568,105.387027 143.255135,106.130811 C142.28,106.805405 141.311351,107.486486 140.323243,108.145946 C139.229189,108.881081 138.115676,109.592432 137.006486,110.308108 C136.007568,110.952432 135.012973,111.598919 134.003243,112.228108 C132.876757,112.928649 131.730811,113.607568 130.589189,114.290811 C129.564324,114.902703 128.545946,115.518919 127.508108,116.115676 C126.351351,116.783784 125.175135,117.428108 124.001081,118.076757 C122.952432,118.656216 121.908108,119.242162 120.848649,119.806486 C119.657297,120.44 118.446486,121.04973 117.24,121.665946 C116.171892,122.210811 115.108108,122.762162 114.029189,123.291892 C112.805405,123.892973 111.564324,124.465946 110.325405,125.047568 C109.237838,125.555676 108.154595,126.076757 107.054054,126.571892 C105.8,127.136216 104.526486,127.672432 103.257297,128.217297 C102.15027,128.692973 101.04973,129.177297 99.9318919,129.637838 C98.6454054,130.165405 97.3372973,130.667027 96.0378378,131.172973 C94.9178378,131.611892 93.8043243,132.061622 92.6735135,132.483243 C91.3481081,132.976216 90.0054054,133.438919 88.6691892,133.91027 C87.5383784,134.31027 86.4162162,134.723243 85.2767568,135.105946 C83.9145946,135.564324 82.5351351,135.988108 81.16,136.422703 C80.0248649,136.781622 78.8983784,137.155676 77.7567568,137.499459 C76.3448649,137.923243 74.9156757,138.31027 73.4908108,138.71027 C72.3643243,139.025946 71.2486486,139.356757 70.1156757,139.657297 C68.6389189,140.048649 67.147027,140.401081 65.6572973,140.766486 C64.5567568,141.034595 63.4648649,141.324324 62.3578378,141.577297 C60.7837838,141.940541 59.1924324,142.262703 57.6054054,142.593514 C56.5675676,142.811892 55.5383784,143.04973 54.4940541,143.252973 C52.747027,143.596757 50.9805405,143.895135 49.2183784,144.2 C48.3189189,144.355676 47.4281081,144.535135 46.5243243,144.682162 C43.8540541,145.114595 41.1686486,145.505946 38.4681081,145.851892 C36.3664865,146.122162 34.2518919,146.357838 32.1351351,146.576216 C31.467027,146.643243 30.7945946,146.701622 30.1243243,146.764324 C28.6389189,146.904865 27.1513514,147.034595 25.6616216,147.147027 C24.9264865,147.203243 24.1891892,147.255135 23.4540541,147.304865 C21.9232432,147.408649 20.3902703,147.495135 18.8572973,147.568649 C18.2367568,147.598919 17.6162162,147.635676 16.9956757,147.661622 C16.7448649,147.672432 16.4962162,147.672432 16.2454054,147.683243 C17.5535135,143.028108 19.0432432,138.40973 20.7016216,133.875676 C22.1697297,133.791351 23.6356757,133.659459 25.1037838,133.547027 C26.0637838,133.473514 27.0216216,133.417297 27.9816216,133.332973 C30.9178378,133.071351 33.8432432,132.766486 36.7383784,132.394595 C39.1708108,132.081081 41.5902703,131.728649 43.9989189,131.337297 C44.7664865,131.214054 45.5232432,131.060541 46.2886486,130.928649 C47.9210811,130.645405 49.5535135,130.370811 51.1708108,130.052973 C52.132973,129.864865 53.0821622,129.644324 54.04,129.443243 C55.4475676,129.147027 56.8594595,128.863784 58.2562162,128.541622 C59.2875676,128.303784 60.3059459,128.035676 61.3308108,127.782703 C62.6389189,127.462703 63.9535135,127.153514 65.252973,126.80973 C66.3081081,126.528649 67.3502703,126.219459 68.3989189,125.925405 C69.6508108,125.572973 70.907027,125.233514 72.1481081,124.861622 C73.2183784,124.539459 74.2713514,124.189189 75.3351351,123.851892 C76.5372973,123.471351 77.7459459,123.101622 78.9372973,122.701622 C80.0140541,122.338378 81.0756757,121.949189 82.1437838,121.570811 C83.3027027,121.162162 84.4681081,120.762162 85.6162162,120.334054 C86.6908108,119.934054 87.7502703,119.505946 88.8140541,119.088649 C89.9383784,118.64973 91.067027,118.221622 92.1805405,117.765405 C93.2486486,117.326486 94.2994595,116.861622 95.3567568,116.407568 C96.4464865,115.940541 97.5405405,115.482162 98.6194595,114.997838 C99.6745946,114.524324 100.712432,114.027027 101.756757,113.536216 C102.818378,113.038919 103.884324,112.55027 104.932973,112.037838 C105.970811,111.52973 106.989189,111 108.016216,110.476757 C109.04973,109.951351 110.087568,109.43027 111.11027,108.88973 C112.132973,108.347027 113.136216,107.782703 114.148108,107.224865 C115.149189,106.671351 116.154595,106.126486 117.144865,105.557838 C118.152432,104.980541 119.142703,104.381622 120.137297,103.787027 C121.103784,103.211892 122.076757,102.641081 123.032432,102.048649 C124.020541,101.436757 124.993514,100.803243 125.968649,100.176216 C126.904865,99.5751351 127.845405,98.9805405 128.768649,98.3643243 C129.735135,97.7221622 130.682162,97.0583784 131.633514,96.4010811 C132.541622,95.7718919 133.454054,95.1491892 134.349189,94.5091892 C135.28973,93.8345946 136.210811,93.1448649 137.136216,92.4572973 C138.014054,91.8043243 138.898378,91.1556757 139.763243,90.4897297 C140.677838,89.787027 141.572973,89.067027 142.47027,88.3491892 C143.32,87.6724324 144.174054,86.9978378 145.008649,86.3081081 C145.895135,85.5751351 146.762162,84.8291892 147.633514,84.0832432 C148.450811,83.3827027 149.272432,82.6843243 150.076757,81.972973 C150.932973,81.2118919 151.774054,80.4378378 152.615135,79.6637838 C153.4,78.9394595 154.189189,78.2194595 154.961081,77.4843243 C155.789189,76.6972973 156.597838,75.8972973 157.406486,75.0972973 C158.163243,74.3513514 158.92,73.6054054 159.661622,72.8464865 C160.452973,72.0378378 161.227027,71.2162162 162.001081,70.3945946 C162.727568,69.6227027 163.456216,68.8508108 164.167568,68.0681081 C164.924324,67.2356757 165.663784,66.3924324 166.403243,65.547027 C167.097297,64.7535135 167.793514,63.9578378 168.472432,63.1513514 C169.192432,62.2972973 169.897297,61.4324324 170.6,60.5675676 C171.263784,59.7481081 171.925405,58.9308108 172.571892,58.1027027 C173.252973,57.2291892 173.918919,56.3448649 174.582703,55.4605405 C175.216216,54.6172973 175.845405,53.7740541 176.461622,52.92 C177.103784,52.0291892 177.730811,51.1297297 178.353514,50.2281081 C178.952432,49.3610811 179.547027,48.4940541 180.128649,47.6183784 C180.734054,46.7081081 181.322162,45.7891892 181.905946,44.8681081 C182.47027,43.9816216 183.028108,43.092973 183.572973,42.1978378 C184.137297,41.2702703 184.684324,40.3362162 185.229189,39.4 C185.756757,38.4897297 186.28,37.5772973 186.788108,36.6583784 C187.311351,35.7156757 187.817297,34.7686486 188.318919,33.8194595 C188.80973,32.8854054 189.294054,31.9513514 189.767568,31.0108108 C190.245405,30.0551351 190.712432,29.092973 191.170811,28.1286486 C191.624865,27.1751351 192.07027,26.2172973 192.502703,25.2551351 C192.939459,24.2864865 193.361081,23.3156757 193.776216,22.3383784 C194.191351,21.3632432 194.597838,20.3837838 194.991351,19.4 C195.382703,18.4205405 195.761081,17.4367568 196.132973,16.4508108 C196.507027,15.4518919 196.87027,14.452973 197.222703,13.4475676 C197.570811,12.4572973 197.905946,11.4648649 198.232432,10.4681081 C198.398919,9.95783784 198.587027,9.45837838 198.747027,8.94810811 C204.52,8.92432432 210.435676,9.17945946 216.353514,9.70702703 L216.353514,9.70702703 Z M126.457297,23.4454054 C126.325405,23.64 126.206486,23.8410811 126.072432,24.0356757 C125.728649,24.5372973 125.363243,25.0302703 125.008649,25.5275676 C124.154595,26.7275676 123.278919,27.9145946 122.375135,29.0864865 C121.957838,29.6291892 121.534054,30.1697297 121.105946,30.7037838 C120.137297,31.9124324 119.138378,33.1016216 118.115676,34.2778378 C117.767568,34.68 117.428108,35.0908108 117.073514,35.4886486 C115.68973,37.0367568 114.267027,38.5545946 112.796757,40.04 C112.509189,40.3297297 112.208649,40.6064865 111.918919,40.8940541 C110.71027,42.0897297 109.473514,43.2681081 108.208649,44.4205405 C107.715676,44.8724324 107.20973,45.3135135 106.708108,45.7589189 C105.564324,46.7686486 104.401081,47.7589189 103.216216,48.7318919 C102.716757,49.1427027 102.221622,49.5556757 101.717838,49.9578378 C100.167568,51.1924324 98.5891892,52.4032432 96.9718919,53.5751351 C96.8508108,53.6637838 96.7340541,53.7589189 96.6108108,53.8475676 C94.8637838,55.1059459 93.0691892,56.3210811 91.2486486,57.5037838 C90.7362162,57.8367568 90.212973,58.1567568 89.6962162,58.4832432 C88.3491892,59.332973 86.9848649,60.1632432 85.6032432,60.9718919 C84.9978378,61.3243243 84.3924324,61.6745946 83.7805405,62.0205405 C82.3275676,62.84 80.8508108,63.6335135 79.3610811,64.4054054 C78.8789189,64.6562162 78.4075676,64.9156757 77.9232432,65.1578378 C75.9556757,66.1502703 73.9621622,67.1016216 71.9362162,68.0054054 C71.5362162,68.1848649 71.1232432,68.3491892 70.7210811,68.5264865 C69.0821622,69.24 67.4281081,69.9297297 65.7545946,70.587027 C65.0821622,70.8508108 64.4032432,71.1059459 63.7243243,71.3589189 C62.2345946,71.9210811 60.7297297,72.4551351 59.2162162,72.9697297 C58.5481081,73.1967568 57.8843243,73.4281081 57.2118919,73.6443243 C56.8897297,73.7481081 56.5610811,73.8367568 56.2389189,73.9383784 C75.5405405,51.8497297 99.4713514,34.6410811 126.457297,23.4454054 L126.457297,23.4454054 Z M199.441081,389.486486 C94.5243243,389.486486 9.17081081,304.130811 9.17081081,199.216216 C9.17081081,192.403243 9.53405405,185.549189 10.2562162,178.79027 C11.2335135,178.772973 12.2151351,178.727568 13.1945946,178.701622 C14.3751351,178.669189 15.5556757,178.638919 16.7383784,178.593514 C18.4789189,178.524324 20.2194595,178.431351 21.9621622,178.331892 C23.0821622,178.269189 24.2021622,178.212973 25.3221622,178.137297 C27.24,178.005405 29.1556757,177.838919 31.0713514,177.67027 C32.0075676,177.585946 32.9459459,177.518919 33.88,177.428108 C36.7297297,177.147027 39.5708108,176.831351 42.4032432,176.468108 C131.315676,165.038919 206.872432,113.717838 240.347027,42.28 C264.671351,72.5005405 303.75027,89.9167568 347.300541,89.9167568 C349.854054,89.9167568 352.422703,89.8497297 355.004324,89.7286486 C355.175135,89.972973 355.358919,90.2064865 355.527568,90.4508108 C377.890811,122.476757 389.711351,160.087568 389.711351,199.216216 C389.711351,304.130811 304.355676,389.486486 199.441081,389.486486 L199.441081,389.486486 Z" id="Fill-15" sketch:type="MSShapeGroup"></path>
            </g>
        </g>
    </g>
</svg>