<?xml version="1.0" encoding="UTF-8" standalone="no"?>
<svg width="400px" height="400px" viewBox="0 0 400 400" version="1.1" xmlns="http://www.w3.org/2000/svg" xmlns:xlink="http://www.w3.org/1999/xlink" xmlns:sketch="http://www.bohemiancoding.com/sketch/ns">
    <!-- Generator: Sketch 3.2.2 (9983) - http://www.bohemiancoding.com/sketch -->
    <title>Splash Screen 3</title>
    <desc>Created with Sketch.</desc>
    <defs></defs>
    <g id="Splash-screens" stroke="none" stroke-width="1" fill="none" fill-rule="evenodd" sketch:type="MSPage">
        <g id="Splash-Screen-3" sketch:type="MSArtboardGroup" fill="#000000">
            <g id="Imported-Layers" sketch:type="MSLayerGroup">
                <path d="M86.9210811,258.330811 C84.4345946,260.371892 81.6172973,261.762162 78.5427027,262.458378 C66.0432432,265.288649 53.1935135,255.662703 49.8702703,241.001081 C48.2378378,233.792432 49.1308108,226.490811 52.3913514,220.443243 C55.5437838,214.592432 60.5491892,210.629189 66.4864865,209.282162 C69.9048649,208.508108 73.3794595,208.637838 76.8237838,209.662703 C79.1113514,210.343784 81.52,209.042162 82.2032432,206.752432 C82.8821622,204.464865 81.5805405,202.056216 79.2908108,201.372973 C74.4064865,199.917838 69.4551351,199.742703 64.5772973,200.847568 C56.1643243,202.752432 49.132973,208.255135 44.7762162,216.341622 C40.5254054,224.229189 39.3405405,233.667027 41.4356757,242.914595 C45.2778378,259.859459 59.2216216,271.597838 74.16,271.597838 C76.2464865,271.597838 78.3524324,271.368649 80.4540541,270.892973 C84.8540541,269.896216 88.8778378,267.917838 92.4108108,265.014054 C94.2551351,263.498378 94.5232432,260.771892 93.0075676,258.927568 C91.4897297,257.078919 88.7632432,256.812973 86.9210811,258.330811" id="Fill-1" sketch:type="MSShapeGroup"></path>
                <path d="M80.947027,226.585946 C81.6821622,224.315676 80.4367568,221.876757 78.1621622,221.141622 C75.8962162,220.408649 73.452973,221.654054 72.7178378,223.926486 L71.0940541,228.947027 L66.6918919,226.038919 C64.7005405,224.72 62.0172973,225.271351 60.7005405,227.260541 C59.3837838,229.254054 59.932973,231.937297 61.9243243,233.251892 L68.332973,237.487568 L65.9697297,244.795676 C65.2345946,247.068108 66.48,249.504865 68.7524324,250.24 C69.1956757,250.382703 69.6432432,250.451892 70.0843243,250.451892 C71.9091892,250.451892 73.6064865,249.286486 74.1967568,247.455135 L75.8205405,242.434595 L80.2227027,245.344865 C80.9578378,245.829189 81.7859459,246.060541 82.6032432,246.060541 C84.0086486,246.060541 85.3837838,245.379459 86.2162162,244.121081 C87.5308108,242.127568 86.9837838,239.446486 84.9924324,238.12973 L78.5837838,233.894054 L80.947027,226.585946" id="Fill-2" sketch:type="MSShapeGroup"></path>
                <path d="M341.364324,225.747027 C339.509189,225.295135 337.561081,226.121081 336.598919,227.781622 C324.752432,248.255135 309.178378,262.657297 290.311351,270.585946 C271.39027,278.538378 245.344865,283.848649 218.851892,285.156757 C217.301622,285.232432 215.909189,286.136216 215.206486,287.522162 C214.505946,288.91027 214.601081,290.564324 215.459459,291.861622 C230.082162,313.963243 246.696216,324.257297 267.749189,324.259459 L267.751351,324.259459 C269.275676,324.259459 270.845405,324.203243 272.419459,324.092973 C309.241081,321.524324 347.554595,290.903784 344.661622,229.744865 C344.570811,227.827027 343.228108,226.201081 341.364324,225.747027 L341.364324,225.747027 Z M271.818378,315.465946 C270.443243,315.561081 269.076757,315.610811 267.751351,315.610811 L267.749189,315.610811 C251.64973,315.608649 238.882162,308.67027 227.083243,293.295135 C251.818378,291.36 275.72973,286.095135 293.662703,278.557838 C310.084324,271.658378 324.175135,260.361081 335.701622,244.884324 C332.579459,279.182703 312.683243,312.614054 271.818378,315.465946 L271.818378,315.465946 Z" id="Fill-3" sketch:type="MSShapeGroup"></path>
                <path d="M208.233514,155.993514 C207.876757,153.632432 205.677838,152.010811 203.312432,152.363243 C178.730811,156.073514 172.495135,177.262703 172.631351,187.95027 C172.661622,190.32 174.59027,192.211892 176.953514,192.211892 L176.994595,192.211892 C179.377297,192.19027 181.292973,190.235676 181.28,187.855135 C181.273514,186.899459 181.414054,164.415135 204.601081,160.914595 C206.964324,160.557838 208.59027,158.354595 208.233514,155.993514" id="Fill-4" sketch:type="MSShapeGroup"></path>
                <path d="M276.704865,131.465946 C276.875676,131.388108 294.112432,123.785946 307.612973,137.636757 C308.460541,138.508108 309.584865,138.942703 310.709189,138.942703 C311.796757,138.942703 312.886486,138.534054 313.727568,137.714595 C315.437838,136.04973 315.472432,133.31027 313.805405,131.6 C299.64973,117.076757 281.007568,120.010811 273.124324,123.591351 C270.951351,124.579459 269.989189,127.143784 270.977297,129.318919 C271.965405,131.491892 274.52973,132.456216 276.704865,131.465946" id="Fill-5" sketch:type="MSShapeGroup"></path>
                <path d="M294.157838,159.552432 C289.991351,160.756757 287.917838,166.244324 289.526486,171.807568 C291.135135,177.370811 295.818378,180.905946 299.982703,179.701622 C304.149189,178.497297 306.222703,173.00973 304.614054,167.446486 C303.005405,161.883243 298.324324,158.348108 294.157838,159.552432" id="Fill-6" sketch:type="MSShapeGroup"></path>
                <path d="M218.553514,207.327568 C222.72,206.123243 224.793514,200.635676 223.184865,195.072432 C221.576216,189.509189 216.895135,185.974054 212.728649,187.178378 C208.562162,188.382703 206.488649,193.87027 208.097297,199.433514 C209.705946,204.998919 214.389189,208.531892 218.553514,207.327568" id="Fill-7" sketch:type="MSShapeGroup"></path>
                <path d="M264.023784,209.980541 C264.871351,211.993514 267.091892,213.057297 269.187027,212.458378 C278.11027,209.930811 286.931892,213.401081 288.864865,220.201081 C290.795676,227.003243 285.111351,234.596757 276.192432,237.128649 C275.042162,237.455135 273.865946,237.688649 272.696216,237.820541 C270.322162,238.086486 268.616216,240.229189 268.884324,242.601081 C269.132973,244.810811 271.003243,246.441081 273.176216,246.441081 C273.336216,246.441081 273.500541,246.432432 273.664865,246.412973 C275.305946,246.229189 276.951351,245.904865 278.555676,245.446486 C292.060541,241.612973 300.417297,229.228108 297.182703,217.84 C294.250811,207.513514 282.776216,201.498378 270.598919,203.323243 L260.015135,178.255135 C259.087568,176.054054 256.551351,175.022703 254.35027,175.952432 C252.151351,176.882162 251.12,179.418378 252.04973,181.617297 L264.023784,209.980541" id="Fill-8" sketch:type="MSShapeGroup"></path>
                <path d="M218.540541,250.68973 C220.715676,250.68973 222.48,248.925405 222.48,246.75027 C222.48,244.572973 220.715676,242.808649 218.540541,242.808649 C216.363243,242.808649 214.598919,244.572973 214.598919,246.75027 C214.598919,248.925405 216.363243,250.68973 218.540541,250.68973" id="Fill-9" sketch:type="MSShapeGroup"></path>
                <path d="M220.51027,234.927568 C220.51027,237.104865 222.274595,238.869189 224.44973,238.869189 C226.627027,238.869189 228.391351,237.104865 228.391351,234.927568 C228.391351,232.752432 226.627027,230.985946 224.44973,230.985946 C222.274595,230.985946 220.51027,232.752432 220.51027,234.927568" id="Fill-10" sketch:type="MSShapeGroup"></path>
                <path d="M232.332973,248.72 C234.508108,248.72 236.272432,246.955676 236.272432,244.778378 C236.272432,242.603243 234.508108,240.838919 232.332973,240.838919 C230.155676,240.838919 228.391351,242.603243 228.391351,244.778378 C228.391351,246.955676 230.155676,248.72 232.332973,248.72" id="Fill-11" sketch:type="MSShapeGroup"></path>
                <path d="M317.31027,206.196757 C319.219459,207.241081 321.615135,206.538378 322.657297,204.627027 C323.701622,202.717838 322.998919,200.324324 321.087568,199.28 C319.178378,198.237838 316.784865,198.940541 315.740541,200.84973 C314.698378,202.758919 315.401081,205.154595 317.31027,206.196757" id="Fill-12" sketch:type="MSShapeGroup"></path>
                <path d="M326.417297,196.194595 C328.328649,197.238919 330.722162,196.536216 331.764324,194.624865 C332.808649,192.715676 332.105946,190.322162 330.194595,189.277838 C328.285405,188.235676 325.891892,188.938378 324.847568,190.847568 C323.805405,192.758919 324.508108,195.152432 326.417297,196.194595" id="Fill-13" sketch:type="MSShapeGroup"></path>
                <path d="M328.789189,201.79027 C327.747027,203.701622 328.44973,206.095135 330.358919,207.139459 C332.268108,208.181622 334.663784,207.478919 335.705946,205.56973 C336.75027,203.658378 336.047568,201.264865 334.136216,200.222703 C332.227027,199.178378 329.833514,199.881081 328.789189,201.79027" id="Fill-14" sketch:type="MSShapeGroup"></path>
                <path d="M363.619459,86.4994595 C357.820541,78.1924324 351.338378,70.2681081 344.352432,62.947027 C319.755676,37.1697297 288.726486,18.4497297 254.620541,8.81297297 L253.565405,8.51459459 C252.237838,8.13621622 250.91027,7.75783784 249.567568,7.41621622 L249.563243,7.41621622 C241.076757,5.26054054 232.304865,3.65189189 223.487568,2.63351351 L223.485405,2.63351351 L223.478919,2.63351351 L223.476757,2.63351351 L223.024865,2.58594595 C223.020541,2.58594595 223.018378,2.58810811 223.014054,2.58594595 C223.011892,2.58594595 223.00973,2.58378378 223.007568,2.58378378 C214.08,1.57621622 205.148108,1.17621622 196.436757,1.34702703 C186.914595,1.53513514 177.334054,2.41297297 167.965405,3.95027027 C157.15027,5.72756757 146.454054,8.40648649 136.179459,11.9113514 C98.6572973,24.7135135 66.08,48.252973 41.9675676,79.9891892 C35.8075676,88.0972973 30.2508108,96.6962162 25.4486486,105.552432 C21.36,113.098378 17.7102703,121.04 14.6054054,129.154595 C14.6054054,129.156757 14.6054054,129.161081 14.6032432,129.163243 C11.7427027,136.64 9.31459459,144.367568 7.38810811,152.131892 C5.51351351,159.68 4.07567568,167.36 3.11135135,174.96 C2.05621622,183.282162 1.52216216,191.779459 1.52216216,200.216216 C1.52216216,309.900541 90.7567568,399.135135 200.441081,399.135135 C310.125405,399.135135 399.36,309.900541 399.36,200.216216 C399.36,159.308108 387.001081,119.984865 363.619459,86.4994595 L363.619459,86.4994595 Z M34.1751351,169.805405 C33.28,169.894054 32.3827027,169.961081 31.4875676,170.041081 C29.6540541,170.205405 27.8183784,170.361081 25.9805405,170.488649 C24.9383784,170.56 23.8962162,170.618378 22.8540541,170.678919 C21.1437838,170.778378 19.4313514,170.867027 17.7210811,170.936216 C16.6572973,170.977297 15.5935135,171.014054 14.5297297,171.044324 C13.8162162,171.065946 13.1027027,171.07027 12.3891892,171.085405 C13.0940541,166.527568 13.9718919,161.958919 15.0140541,157.424865 C15.7318919,157.405405 16.4497297,157.364324 17.1675676,157.338378 C18.1362162,157.301622 19.1027027,157.264865 20.0713514,157.219459 C21.452973,157.152432 22.8324324,157.07027 24.2118919,156.981622 C25.12,156.923243 26.0281081,156.871351 26.9340541,156.802162 C28.4540541,156.68973 29.9675676,156.553514 31.4832432,156.412973 C32.2486486,156.343784 33.0140541,156.283243 33.7772973,156.205405 C36.0497297,155.976216 38.3156757,155.721081 40.5708108,155.431351 C130.11027,143.92 204.20973,86.3351351 226.077838,11.7016216 C231.801081,12.4713514 237.491892,13.4745946 243.07027,14.7481081 C242.92973,15.212973 242.802162,15.6778378 242.657297,16.1448649 C242.415135,16.9254054 242.162162,17.7081081 241.907027,18.4908108 C241.472432,19.8227027 241.020541,21.1545946 240.549189,22.4843243 C240.274595,23.267027 240,24.0475676 239.712432,24.8281081 C239.191351,26.2421622 238.642162,27.6540541 238.082162,29.0659459 C237.814054,29.7405405 237.558919,30.4151351 237.284324,31.0875676 C236.432432,33.1610811 235.55027,35.2324324 234.618378,37.292973 C202.96,107.286486 129.267027,157.71027 42.3005405,168.888649 C39.6021622,169.236757 36.8908108,169.535135 34.1751351,169.805405 L34.1751351,169.805405 Z M31.9783784,111.686486 C32.9513514,111.587027 33.9264865,111.483243 34.9059459,111.357838 C36.9102703,111.100541 38.9037838,110.810811 40.8886486,110.492973 C41.5524324,110.387027 42.2097297,110.257297 42.8735135,110.144865 C44.1881081,109.92 45.5048649,109.699459 46.8086486,109.448649 C47.5827027,109.299459 48.3459459,109.126486 49.1156757,108.968649 C50.2983784,108.726486 51.4832432,108.492973 52.6572973,108.229189 C53.4767568,108.045405 54.2854054,107.837838 55.1027027,107.643243 C56.2140541,107.377297 57.3318919,107.12 58.4345946,106.836757 C59.2562162,106.624865 60.067027,106.389189 60.8843243,106.168649 C61.9697297,105.872432 63.0594595,105.587027 64.1362162,105.273514 C64.96,105.033514 65.7708108,104.771892 66.5881081,104.521081 C67.6432432,104.198919 68.7048649,103.885405 69.7491892,103.543784 C70.572973,103.277838 71.3837838,102.988108 72.2010811,102.711351 C73.2281081,102.361081 74.2616216,102.019459 75.28,101.651892 C76.092973,101.36 76.8951351,101.046486 77.7016216,100.743784 C78.7091892,100.365405 79.7210811,99.9935135 80.7178378,99.6 C81.52,99.2821622 82.3113514,98.9448649 83.1091892,98.6183784 C84.0951351,98.2118919 85.0832432,97.8118919 86.0605405,97.3902703 C86.8432432,97.052973 87.612973,96.6962162 88.3913514,96.3481081 C89.3664865,95.9091892 90.3437838,95.4789189 91.3081081,95.0248649 C92.0713514,94.6659459 92.8237838,94.2897297 93.5805405,93.92 C94.5383784,93.4551351 95.4962162,92.9945946 96.4410811,92.5124324 C97.1935135,92.1318919 97.9308108,91.7318919 98.6745946,91.3405405 C99.6108108,90.8475676 100.549189,90.3589189 101.472432,89.8508108 C102.205405,89.4486486 102.927568,89.0291892 103.651892,88.6183784 C104.566486,88.0972973 105.483243,87.5827027 106.384865,87.0486486 C107.104865,86.6227027 107.80973,86.1837838 108.521081,85.747027 C109.411892,85.2043243 110.304865,84.6616216 111.180541,84.1037838 C111.883243,83.6583784 112.572973,83.1978378 113.267027,82.7416216 C114.131892,82.172973 115.001081,81.6064865 115.855135,81.0227027 C116.538378,80.5556757 117.210811,80.0735135 117.887568,79.5978378 C118.728649,79.0054054 119.571892,78.412973 120.402162,77.8054054 C121.065946,77.3210811 121.718919,76.8216216 122.374054,76.3264865 C123.193514,75.7081081 124.012973,75.0918919 124.819459,74.4583784 C125.463784,73.9524324 126.097297,73.4356757 126.732973,72.9210811 C127.524324,72.2810811 128.315676,71.6410811 129.094054,70.9881081 C129.725405,70.4583784 130.343784,69.9178378 130.966486,69.3794595 C131.725405,68.72 132.484324,68.0627027 133.23027,67.3924324 C133.842162,66.8432432 134.443243,66.2810811 135.046486,65.7232432 C135.777297,65.0443243 136.508108,64.3654054 137.223784,63.6756757 C137.816216,63.1048649 138.397838,62.5232432 138.979459,61.9459459 C139.682162,61.2475676 140.382703,60.5491892 141.07027,59.84 C141.643243,59.2497297 142.203243,58.6486486 142.765405,58.0497297 C143.435676,57.3340541 144.105946,56.6183784 144.761081,55.8918919 C145.312432,55.2821622 145.850811,54.6616216 146.391351,54.0432432 C147.031351,53.3102703 147.669189,52.5772973 148.294054,51.8335135 C148.823784,51.2021622 149.342703,50.5621622 149.863784,49.9221622 C150.469189,49.1740541 151.072432,48.4259459 151.662703,47.6691892 C152.172973,47.0162162 152.67027,46.3545946 153.167568,45.6951351 C153.740541,44.9340541 154.311351,44.1708108 154.869189,43.3989189 C155.355676,42.7243243 155.831351,42.0432432 156.304865,41.3621622 C156.843243,40.5881081 157.377297,39.8140541 157.898378,39.0335135 C158.365405,38.332973 158.819459,37.6281081 159.273514,36.9232432 C159.775135,36.1427027 160.27027,35.3578378 160.756757,34.5686486 C161.197838,33.8464865 161.63027,33.12 162.060541,32.3913514 C162.525405,31.6 162.985946,30.8086486 163.433514,30.0086486 C163.852973,29.2648649 164.259459,28.5167568 164.663784,27.7664865 C165.094054,26.9664865 165.515676,26.1664865 165.928649,25.36 C166.322162,24.5924324 166.702703,23.8227027 167.081081,23.0486486 C167.474595,22.2443243 167.859459,21.4356757 168.237838,20.6227027 C168.601081,19.8335135 168.957838,19.0421622 169.305946,18.2464865 C169.662703,17.4356757 170.012973,16.6205405 170.352432,15.8032432 C170.68973,14.9902703 171.016216,14.1751351 171.336216,13.3556757 C171.502703,12.9340541 171.684324,12.5189189 171.846486,12.0951351 C178.028108,11.1632432 184.294054,10.5340541 190.562162,10.2097297 C190.557838,10.2205405 190.555676,10.2291892 190.553514,10.24 C190.425946,10.6183784 190.276757,10.9881081 190.144865,11.3643243 C189.619459,12.8735135 189.083243,14.3783784 188.505946,15.8681081 C188.242162,16.5491892 187.948108,17.2172973 187.673514,17.8918919 C187.197838,19.0681081 186.726486,20.2464865 186.218378,21.4097297 C185.883243,22.1751351 185.517838,22.9254054 185.16973,23.6843243 C184.685405,24.7437838 184.207568,25.8054054 183.695135,26.8540541 C183.303784,27.6540541 182.884324,28.4410811 182.477838,29.2367568 C181.971892,30.2291892 181.472432,31.2237838 180.942703,32.2054054 C180.505946,33.0118919 180.041081,33.8075676 179.589189,34.6075676 C179.050811,35.5610811 178.523243,36.5145946 177.963243,37.4572973 C177.485405,38.2616216 176.981622,39.052973 176.488649,39.8486486 C175.917838,40.7697297 175.355676,41.692973 174.765405,42.6032432 C174.248649,43.3989189 173.708108,44.1837838 173.174054,44.972973 C172.572973,45.8637838 171.974054,46.7567568 171.353514,47.6367568 C170.797838,48.4237838 170.222703,49.1978378 169.651892,49.9762162 C169.018378,50.8410811 168.387027,51.7059459 167.734054,52.56 C167.143784,53.3318919 166.534054,54.092973 165.928649,54.8562162 C165.262703,55.6951351 164.596757,56.5340541 163.913514,57.3621622 C163.286486,58.1210811 162.642162,58.8691892 162,59.6172973 C161.303784,60.4281081 160.60973,61.2410811 159.896216,62.0389189 C159.236757,62.7827027 158.56,63.5135135 157.883243,64.2464865 C157.156757,65.0335135 156.428108,65.8205405 155.684324,66.5967568 C154.994595,67.3189189 154.28973,68.0302703 153.582703,68.7416216 C152.825946,69.5048649 152.064865,70.2659459 151.290811,71.0183784 C150.566486,71.7210811 149.831351,72.4151351 149.094054,73.107027 C148.309189,73.8443243 147.517838,74.5772973 146.717838,75.3037838 C145.963243,75.9848649 145.197838,76.6594595 144.43027,77.3318919 C143.615135,78.0454054 142.795676,78.7524324 141.965405,79.452973 C141.184865,80.1102703 140.395676,80.7610811 139.6,81.4097297 C138.756757,82.0972973 137.904865,82.7805405 137.044324,83.4551351 C136.237838,84.0908108 135.422703,84.72 134.601081,85.3427027 C133.727568,86.0064865 132.84973,86.6616216 131.963243,87.3102703 C131.128649,87.9221622 130.287568,88.5275676 129.442162,89.1264865 C128.542703,89.7621622 127.634595,90.3913514 126.72,91.0140541 C125.861622,91.5978378 125.001081,92.1794595 124.12973,92.7524324 C123.202162,93.3621622 122.265946,93.9632432 121.325405,94.56 C120.443243,95.1178378 119.558919,95.6735135 118.665946,96.2205405 C117.712432,96.8021622 116.748108,97.3751351 115.781622,97.9437838 C114.88,98.4756757 113.976216,99.0032432 113.063784,99.5221622 C112.08,100.077838 111.087568,100.622703 110.092973,101.165405 C109.174054,101.667027 108.252973,102.166486 107.323243,102.655135 C106.311351,103.184865 105.288649,103.701622 104.263784,104.216216 C103.327568,104.687568 102.393514,105.161081 101.448649,105.617297 C100.408649,106.118919 99.3578378,106.605405 98.3091892,107.091892 C97.3556757,107.532973 96.4064865,107.976216 95.4443243,108.404324 C94.3783784,108.877838 93.2994595,109.334054 92.2227027,109.79027 C91.2583784,110.198919 90.2962162,110.611892 89.3232432,111.007568 C88.2248649,111.452973 87.1156757,111.878919 86.0086486,112.307027 C85.0356757,112.683243 84.0648649,113.063784 83.0832432,113.427027 C81.9545946,113.844324 80.8108108,114.24 79.6713514,114.637838 C78.6940541,114.979459 77.7210811,115.32973 76.7372973,115.656216 C75.5762162,116.043243 74.4021622,116.404324 73.2324324,116.771892 C72.2486486,117.081081 71.267027,117.401081 70.2767568,117.695135 C69.0789189,118.051892 67.8659459,118.380541 66.6594595,118.717838 C65.6821622,118.99027 64.7113514,119.273514 63.7275676,119.532973 C62.4691892,119.863784 61.1956757,120.164324 59.9286486,120.473514 C58.9794595,120.704865 58.0367568,120.949189 57.0832432,121.167568 C55.7362162,121.474595 54.3783784,121.749189 53.0205405,122.032432 C52.1297297,122.218378 51.2454054,122.421622 50.3481081,122.596757 C48.8389189,122.890811 47.3167568,123.148108 45.7945946,123.411892 C45.0378378,123.541622 44.2875676,123.690811 43.5286486,123.814054 C41.2432432,124.183784 38.9448649,124.518919 36.6356757,124.815135 C33.9632432,125.158919 31.2583784,125.435676 28.5448649,125.682162 C27.9675676,125.734054 27.3881081,125.788108 26.8086486,125.835676 C26.2832432,125.878919 25.7556757,125.898378 25.2281081,125.939459 C27.2886486,121.078919 29.5459459,116.309189 31.9783784,111.686486 L31.9783784,111.686486 Z M47.9091892,86.4756757 C49.0421622,86.2140541 50.1535135,85.8962162 51.2756757,85.6086486 C52.4324324,85.3145946 53.5956757,85.0378378 54.7416216,84.7178378 C56.1448649,84.3264865 57.5264865,83.8897297 58.9124324,83.4616216 C60.0151351,83.12 61.1286486,82.7978378 62.2227027,82.4324324 C63.6345946,81.9610811 65.0227027,81.44 66.4151351,80.9318919 C67.4508108,80.5535135 68.4951351,80.1967568 69.52,79.7967568 C70.9643243,79.2345946 72.3783784,78.6205405 73.7989189,78.0151351 C74.7416216,77.6151351 75.6972973,77.2389189 76.627027,76.8216216 C78.1275676,76.147027 79.5935135,75.4205405 81.0637838,74.7027027 C81.8832432,74.3027027 82.72,73.9286486 83.5308108,73.5135135 C85.1827027,72.6702703 86.7935135,71.772973 88.4021622,70.8735135 C89.0010811,70.5405405 89.6151351,70.2335135 90.2075676,69.8918919 C94.5989189,67.36 98.8281081,64.6248649 102.871351,61.6994595 C103.234595,61.4378378 103.576216,61.1545946 103.935135,60.8886486 C105.571892,59.68 107.195676,58.4605405 108.76973,57.1891892 C109.385946,56.6940541 109.967568,56.1664865 110.572973,55.6605405 C111.852973,54.5902703 113.139459,53.5243243 114.374054,52.4151351 C115.065946,51.7902703 115.721081,51.1372973 116.397838,50.4994595 C117.500541,49.4681081 118.60973,48.4432432 119.671351,47.3794595 C120.376216,46.6724324 121.04,45.9372973 121.725405,45.2151351 C122.709189,44.1837838 123.701622,43.1589189 124.646486,42.0972973 C125.336216,41.3232432 125.984865,40.5232432 126.652973,39.7340541 C127.537297,38.6897297 128.432432,37.6540541 129.28,36.5859459 C129.941622,35.7491892 130.564324,34.8886486 131.204324,34.0367568 C131.997838,32.9816216 132.8,31.9308108 133.556757,30.8518919 C134.181622,29.9632432 134.763243,29.0508108 135.36,28.147027 C136.071351,27.0724324 136.791351,26.0021622 137.463784,24.9059459 C138.038919,23.9697297 138.575135,23.0140541 139.122162,22.0627027 C139.604324,21.2259459 140.123243,20.4043243 140.583784,19.5567568 C147.485405,17.2713514 154.579459,15.3772973 161.762162,13.8940541 C161.595676,14.2810811 161.435676,14.6724324 161.264865,15.0572973 C160.972973,15.7189189 160.674595,16.3783784 160.36973,17.0335135 C159.991351,17.852973 159.602162,18.6681081 159.204324,19.4789189 C158.886486,20.1275676 158.566486,20.7740541 158.237838,21.4162162 C157.824865,22.2248649 157.396757,23.0291892 156.966486,23.8291892 C156.627027,24.4583784 156.287568,25.0897297 155.937297,25.7145946 C155.483243,26.5210811 155.016216,27.3210811 154.544865,28.1189189 C154.19027,28.7221622 153.837838,29.3275676 153.472432,29.9264865 C152.972973,30.7416216 152.456216,31.5459459 151.939459,32.3502703 C151.576216,32.9189189 151.217297,33.4897297 150.843243,34.0540541 C150.285405,34.8951351 149.703784,35.7254054 149.126486,36.5556757 C148.76973,37.0659459 148.421622,37.5848649 148.058378,38.0908108 C147.39027,39.0227027 146.698378,39.9372973 146.004324,40.8540541 C145.705946,41.2475676 145.420541,41.6475676 145.117838,42.0389189 C144.108108,43.3427027 143.074595,44.6335135 142.012973,45.9048649 C141.982703,45.9437838 141.95027,45.9783784 141.917838,46.0172973 C140.890811,47.2475676 139.84,48.4627027 138.767568,49.6605405 C138.421622,50.0497297 138.060541,50.4259459 137.708108,50.8108108 C136.938378,51.6518919 136.168649,52.492973 135.377297,53.3210811 C134.940541,53.7751351 134.490811,54.2183784 134.04973,54.6681081 C133.321081,55.4075676 132.592432,56.1491892 131.846486,56.8756757 C131.357838,57.3513514 130.858378,57.8183784 130.361081,58.2875676 C129.641081,58.972973 128.918919,59.6562162 128.181622,60.3264865 C127.656216,60.8043243 127.122162,61.2735135 126.59027,61.7448649 C125.857297,62.3935135 125.122162,63.04 124.376216,63.6778378 C123.827027,64.1448649 123.269189,64.6054054 122.713514,65.0659459 C121.961081,65.6886486 121.206486,66.307027 120.441081,66.9167568 C119.87027,67.372973 119.292973,67.8227027 118.713514,68.2702703 C117.941622,68.8691892 117.163243,69.4616216 116.378378,70.0454054 C115.788108,70.4843243 115.195676,70.9210811 114.598919,71.3513514 C113.803243,71.9286486 112.998919,72.4972973 112.188108,73.0616216 C111.584865,73.4810811 110.981622,73.8983784 110.371892,74.3113514 C109.543784,74.8713514 108.704865,75.4227027 107.861622,75.9697297 C107.256216,76.3632432 106.648649,76.7589189 106.034595,77.1459459 C105.16973,77.6908108 104.294054,78.2248649 103.416216,78.7567568 C102.806486,79.1243243 102.198919,79.4983784 101.582703,79.8594595 C100.668108,80.3978378 99.7405405,80.9210811 98.812973,81.4421622 C98.2183784,81.7751351 97.6302703,82.1145946 97.0313514,82.4432432 C96.0324324,82.9902703 95.0162162,83.5178378 94.0021622,84.0475676 C93.4594595,84.3286486 92.9254054,84.6183784 92.3805405,84.8951351 C91.2,85.4940541 90.0043243,86.0713514 88.8043243,86.6464865 C88.4108108,86.8345946 88.0237838,87.0313514 87.6281081,87.2172973 C84.4064865,88.7286486 81.12,90.1491892 77.7751351,91.4767568 C77.3145946,91.6583784 76.8475676,91.827027 76.3848649,92.0064865 C75.1762162,92.4735135 73.9675676,92.9383784 72.7437838,93.3794595 C72.1405405,93.5978378 71.5264865,93.8032432 70.9189189,94.0151351 C69.8248649,94.3978378 68.732973,94.7805405 67.6281081,95.1416216 C66.9535135,95.3621622 66.2724324,95.5697297 65.5956757,95.7837838 C64.5448649,96.1145946 63.4940541,96.4454054 62.4324324,96.7567568 C61.7145946,96.9686486 60.9902703,97.1697297 60.2681081,97.372973 C59.2324324,97.6648649 58.1967568,97.9524324 57.1545946,98.227027 C56.4086486,98.4216216 55.6605405,98.6075676 54.9102703,98.7956757 C53.8789189,99.0508108 52.8454054,99.3037838 51.8054054,99.5437838 C51.0378378,99.7189189 50.2681081,99.8897297 49.4983784,100.056216 C48.4627027,100.281081 47.4227027,100.499459 46.3805405,100.707027 C45.5978378,100.862703 44.8172973,101.014054 44.0324324,101.158919 C42.9859459,101.353514 41.9351351,101.537297 40.8821622,101.712432 C40.0951351,101.846486 39.3059459,101.976216 38.5145946,102.099459 C38.1059459,102.162162 37.6951351,102.216216 37.2864865,102.276757 C40.5513514,96.8562162 44.1059459,91.5675676 47.9091892,86.4756757 L47.9091892,86.4756757 Z M246.077838,32.3654054 C246.67027,30.8735135 247.247568,29.3816216 247.798919,27.8875676 C248.086486,27.1091892 248.365405,26.3286486 248.642162,25.5481081 C249.154595,24.0972973 249.645405,22.6486486 250.118919,21.1978378 C250.361081,20.4583784 250.605405,19.7189189 250.836757,18.9794595 C250.949189,18.6140541 251.078919,18.2486486 251.191351,17.8854054 C251.273514,18.0324324 251.355676,18.1643243 251.437838,18.3091892 C251.796757,18.9405405 252.155676,19.5545946 252.51027,20.1513514 C252.637838,20.3654054 252.767568,20.5816216 252.895135,20.7913514 C253.364324,21.5632432 253.833514,22.3156757 254.304865,23.0356757 C255.433514,24.7654054 256.618378,26.4540541 257.848649,28.1016216 C258.235676,28.6183784 258.659459,29.107027 259.057297,29.6151351 C259.922162,30.7264865 260.780541,31.8421622 261.690811,32.9124324 C262.194595,33.5048649 262.737297,34.0627027 263.256216,34.6421622 C264.101622,35.5913514 264.936216,36.5513514 265.818378,37.4659459 C266.4,38.0691892 267.018378,38.6356757 267.617297,39.2237838 C268.477838,40.0713514 269.325405,40.9340541 270.218378,41.7513514 C270.862703,42.3416216 271.543784,42.8951351 272.205405,43.4702703 C273.091892,44.2421622 273.967568,45.0248649 274.882162,45.7664865 C275.576216,46.3286486 276.304865,46.8540541 277.016216,47.3989189 C277.937297,48.1059459 278.847568,48.8259459 279.794595,49.5027027 C280.540541,50.0345946 281.314595,50.5275676 282.073514,51.04 C283.027027,51.6843243 283.96973,52.3394595 284.947027,52.9535135 C285.738378,53.4508108 286.557838,53.9091892 287.364324,54.387027 C288.348108,54.9686486 289.321081,55.5632432 290.324324,56.1145946 C291.158919,56.572973 292.021622,56.9924324 292.871351,57.4313514 C293.883243,57.9524324 294.886486,58.4864865 295.917838,58.9772973 C296.791351,59.3945946 297.690811,59.772973 298.579459,60.1686486 C299.621622,60.6313514 300.655135,61.1048649 301.716757,61.5394595 C302.627027,61.9091892 303.558919,62.2443243 304.482162,62.5924324 C305.552432,62.9989189 306.618378,63.4140541 307.708108,63.7902703 C308.650811,64.1145946 309.617297,64.4021622 310.572973,64.7048649 C311.671351,65.052973 312.763243,65.4075676 313.878919,65.7254054 C314.856216,66.0021622 315.850811,66.2421622 316.838919,66.4951351 C317.961081,66.7848649 319.081081,67.0810811 320.218378,67.3383784 C321.223784,67.5654054 322.246486,67.7556757 323.264865,67.9589189 C324.412973,68.1881081 325.556757,68.4237838 326.717838,68.6227027 C327.751351,68.7978378 328.797838,68.9383784 329.84,69.0897297 C331.00973,69.2583784 332.177297,69.4335135 333.362162,69.5718919 C334.419459,69.6951351 335.487568,69.7816216 336.553514,69.8810811 C337.442162,69.9610811 338.32,70.0735135 339.215135,70.1362162 C339.945946,70.9167568 340.665946,71.7081081 341.383784,72.4994595 C342.062703,73.2475676 342.748108,73.987027 343.414054,74.7459459 C344.345946,75.8075676 345.251892,76.892973 346.162162,77.9783784 C346.771892,78.7027027 347.392432,79.4183784 347.991351,80.1535135 C348.542703,80.8324324 349.07027,81.5286486 349.612973,82.2140541 C306.44973,82.5664865 267.952432,64.947027 245.331892,34.2572973 C245.591351,33.6281081 245.827027,32.9967568 246.077838,32.3654054 L246.077838,32.3654054 Z M329.126486,60.2659459 C328.676757,60.1945946 328.237838,60.0994595 327.792432,60.0216216 C326.335135,59.7686486 324.886486,59.4983784 323.452973,59.1935135 C322.784865,59.0508108 322.127568,58.8886486 321.465946,58.732973 C320.263784,58.4540541 319.07027,58.1643243 317.887568,57.8486486 C317.184865,57.6605405 316.486486,57.4616216 315.792432,57.2605405 C314.650811,56.9318919 313.52,56.5837838 312.397838,56.2205405 C311.723243,56.0021622 311.048649,55.7816216 310.380541,55.5502703 C309.210811,55.1459459 308.058378,54.7135135 306.91027,54.2724324 C306.328649,54.0475676 305.740541,53.8335135 305.165405,53.6 C303.695135,53.0010811 302.248649,52.3697297 300.817297,51.7102703 C300.59027,51.6043243 300.356757,51.5113514 300.12973,51.4054054 C298.475676,50.6291892 296.854054,49.8054054 295.258378,48.947027 C294.8,48.7005405 294.358919,48.4345946 293.904865,48.1816216 C292.778378,47.5524324 291.660541,46.9124324 290.564324,46.2421622 C290.006486,45.9005405 289.459459,45.5459459 288.91027,45.1935135 C287.937297,44.572973 286.975135,43.9372973 286.03027,43.2843243 C285.47027,42.8972973 284.914595,42.5037838 284.363243,42.1059459 C283.435676,41.4335135 282.527568,40.7459459 281.628108,40.0432432 C281.113514,39.6410811 280.594595,39.2432432 280.090811,38.8302703 C279.124324,38.0432432 278.183784,37.2302703 277.251892,36.4064865 C276.854054,36.0540541 276.443243,35.7124324 276.051892,35.3535135 C274.743784,34.1556757 273.468108,32.9275676 272.233514,31.6562162 C272.127568,31.5481081 272.028108,31.4291892 271.922162,31.3189189 C270.804324,30.1556757 269.718919,28.9621622 268.663784,27.7405405 C268.287568,27.3037838 267.928649,26.8497297 267.561081,26.4064865 C266.795676,25.4832432 266.041081,24.5513514 265.312432,23.5978378 C264.912432,23.0724324 264.523243,22.5362162 264.134054,22 C263.79027,21.5286486 263.461622,21.0443243 263.128649,20.5643243 C287.617297,29.1135135 310.162162,42.6464865 329.316757,60.2918919 C329.254054,60.2832432 329.189189,60.2767568 329.126486,60.2659459 L329.126486,60.2659459 Z M217.353514,10.707027 C217.221622,11.1394595 217.100541,11.5762162 216.966486,12.0064865 C216.627027,13.0962162 216.265946,14.1772973 215.902703,15.2583784 C215.522162,16.387027 215.137297,17.5135135 214.730811,18.6335135 C214.345946,19.7016216 213.941622,20.7654054 213.530811,21.8248649 C213.100541,22.9405405 212.663784,24.0540541 212.207568,25.1589189 C211.775135,26.2097297 211.327568,27.2540541 210.871351,28.2940541 C210.393514,29.3902703 209.909189,30.4843243 209.405405,31.5697297 C208.927568,32.6010811 208.436757,33.6281081 207.937297,34.652973 C207.40973,35.7297297 206.875676,36.8043243 206.326486,37.8724324 C205.805405,38.8843243 205.271351,39.8897297 204.730811,40.892973 C204.157838,41.9524324 203.574054,43.0075676 202.977297,44.0562162 C202.415135,45.0443243 201.842162,46.0302703 201.260541,47.0097297 C200.64,48.0497297 200.010811,49.0854054 199.368649,50.1167568 C198.763243,51.0854054 198.151351,52.0475676 197.528649,53.0054054 C196.864865,54.0237838 196.192432,55.0356757 195.507027,56.0410811 C194.862703,56.9881081 194.20973,57.932973 193.545946,58.8691892 C192.838919,59.8659459 192.121081,60.8562162 191.392432,61.84 C190.709189,62.7632432 190.021622,63.6821622 189.321081,64.5924324 C188.570811,65.5675676 187.807568,66.5362162 187.035676,67.4983784 C186.317838,68.3956757 185.591351,69.2908108 184.854054,70.1794595 C184.062703,71.1308108 183.256216,72.0735135 182.445405,73.0118919 C181.688649,73.8832432 180.92973,74.7545946 180.157838,75.6151351 C179.325405,76.5427027 178.477838,77.4594595 177.625946,78.3740541 C176.834595,79.2216216 176.041081,80.067027 175.232432,80.9037838 C174.361081,81.8054054 173.474595,82.6940541 172.583784,83.5805405 C171.757838,84.4021622 170.931892,85.2237838 170.090811,86.0324324 C169.180541,86.9081081 168.255135,87.7708108 167.325405,88.6291892 C166.467027,89.4248649 165.608649,90.2205405 164.732973,91.0032432 C163.785946,91.8486486 162.823784,92.6810811 161.859459,93.5135135 C160.968649,94.2789189 160.08,95.0486486 159.174054,95.8010811 C158.19027,96.6205405 157.187027,97.427027 156.183784,98.2313514 C155.264865,98.9686486 154.348108,99.7059459 153.414054,100.43027 C152.393514,101.221622 151.355676,101.993514 150.317838,102.76973 C149.368649,103.476757 148.423784,104.185946 147.459459,104.88 C146.402162,105.643243 145.327568,106.387027 144.255135,107.130811 C143.28,107.805405 142.311351,108.486486 141.323243,109.145946 C140.229189,109.881081 139.115676,110.592432 138.006486,111.308108 C137.007568,111.952432 136.012973,112.598919 135.003243,113.228108 C133.876757,113.928649 132.730811,114.607568 131.589189,115.290811 C130.564324,115.902703 129.545946,116.518919 128.508108,117.115676 C127.351351,117.783784 126.175135,118.428108 125.001081,119.076757 C123.952432,119.656216 122.908108,120.242162 121.848649,120.806486 C120.657297,121.44 119.446486,122.04973 118.24,122.665946 C117.171892,123.210811 116.108108,123.762162 115.029189,124.291892 C113.805405,124.892973 112.564324,125.465946 111.325405,126.047568 C110.237838,126.555676 109.154595,127.076757 108.054054,127.571892 C106.8,128.136216 105.526486,128.672432 104.257297,129.217297 C103.15027,129.692973 102.04973,130.177297 100.931892,130.637838 C99.6454054,131.165405 98.3372973,131.667027 97.0378378,132.172973 C95.9178378,132.611892 94.8043243,133.061622 93.6735135,133.483243 C92.3481081,133.976216 91.0054054,134.438919 89.6691892,134.91027 C88.5383784,135.31027 87.4162162,135.723243 86.2767568,136.105946 C84.9145946,136.564324 83.5351351,136.988108 82.16,137.422703 C81.0248649,137.781622 79.8983784,138.155676 78.7567568,138.499459 C77.3448649,138.923243 75.9156757,139.31027 74.4908108,139.71027 C73.3643243,140.025946 72.2486486,140.356757 71.1156757,140.657297 C69.6389189,141.048649 68.147027,141.401081 66.6572973,141.766486 C65.5567568,142.034595 64.4648649,142.324324 63.3578378,142.577297 C61.7837838,142.940541 60.1924324,143.262703 58.6054054,143.593514 C57.5675676,143.811892 56.5383784,144.04973 55.4940541,144.252973 C53.747027,144.596757 51.9805405,144.895135 50.2183784,145.2 C49.3189189,145.355676 48.4281081,145.535135 47.5243243,145.682162 C44.8540541,146.114595 42.1686486,146.505946 39.4681081,146.851892 C37.3664865,147.122162 35.2518919,147.357838 33.1351351,147.576216 C32.467027,147.643243 31.7945946,147.701622 31.1243243,147.764324 C29.6389189,147.904865 28.1513514,148.034595 26.6616216,148.147027 C25.9264865,148.203243 25.1891892,148.255135 24.4540541,148.304865 C22.9232432,148.408649 21.3902703,148.495135 19.8572973,148.568649 C19.2367568,148.598919 18.6162162,148.635676 17.9956757,148.661622 C17.7448649,148.672432 17.4962162,148.672432 17.2454054,148.683243 C18.5535135,144.028108 20.0432432,139.40973 21.7016216,134.875676 C23.1697297,134.791351 24.6356757,134.659459 26.1037838,134.547027 C27.0637838,134.473514 28.0216216,134.417297 28.9816216,134.332973 C31.9178378,134.071351 34.8432432,133.766486 37.7383784,133.394595 C40.1708108,133.081081 42.5902703,132.728649 44.9989189,132.337297 C45.7664865,132.214054 46.5232432,132.060541 47.2886486,131.928649 C48.9210811,131.645405 50.5535135,131.370811 52.1708108,131.052973 C53.132973,130.864865 54.0821622,130.644324 55.04,130.443243 C56.4475676,130.147027 57.8594595,129.863784 59.2562162,129.541622 C60.2875676,129.303784 61.3059459,129.035676 62.3308108,128.782703 C63.6389189,128.462703 64.9535135,128.153514 66.252973,127.80973 C67.3081081,127.528649 68.3502703,127.219459 69.3989189,126.925405 C70.6508108,126.572973 71.907027,126.233514 73.1481081,125.861622 C74.2183784,125.539459 75.2713514,125.189189 76.3351351,124.851892 C77.5372973,124.471351 78.7459459,124.101622 79.9372973,123.701622 C81.0140541,123.338378 82.0756757,122.949189 83.1437838,122.570811 C84.3027027,122.162162 85.4681081,121.762162 86.6162162,121.334054 C87.6908108,120.934054 88.7502703,120.505946 89.8140541,120.088649 C90.9383784,119.64973 92.067027,119.221622 93.1805405,118.765405 C94.2486486,118.326486 95.2994595,117.861622 96.3567568,117.407568 C97.4464865,116.940541 98.5405405,116.482162 99.6194595,115.997838 C100.674595,115.524324 101.712432,115.027027 102.756757,114.536216 C103.818378,114.038919 104.884324,113.55027 105.932973,113.037838 C106.970811,112.52973 107.989189,112 109.016216,111.476757 C110.04973,110.951351 111.087568,110.43027 112.11027,109.88973 C113.132973,109.347027 114.136216,108.782703 115.148108,108.224865 C116.149189,107.671351 117.154595,107.126486 118.144865,106.557838 C119.152432,105.980541 120.142703,105.381622 121.137297,104.787027 C122.103784,104.211892 123.076757,103.641081 124.032432,103.048649 C125.020541,102.436757 125.993514,101.803243 126.968649,101.176216 C127.904865,100.575135 128.845405,99.9805405 129.768649,99.3643243 C130.735135,98.7221622 131.682162,98.0583784 132.633514,97.4010811 C133.541622,96.7718919 134.454054,96.1491892 135.349189,95.5091892 C136.28973,94.8345946 137.210811,94.1448649 138.136216,93.4572973 C139.014054,92.8043243 139.898378,92.1556757 140.763243,91.4897297 C141.677838,90.787027 142.572973,90.067027 143.47027,89.3491892 C144.32,88.6724324 145.174054,87.9978378 146.008649,87.3081081 C146.895135,86.5751351 147.762162,85.8291892 148.633514,85.0832432 C149.450811,84.3827027 150.272432,83.6843243 151.076757,82.972973 C151.932973,82.2118919 152.774054,81.4378378 153.615135,80.6637838 C154.4,79.9394595 155.189189,79.2194595 155.961081,78.4843243 C156.789189,77.6972973 157.597838,76.8972973 158.406486,76.0972973 C159.163243,75.3513514 159.92,74.6054054 160.661622,73.8464865 C161.452973,73.0378378 162.227027,72.2162162 163.001081,71.3945946 C163.727568,70.6227027 164.456216,69.8508108 165.167568,69.0681081 C165.924324,68.2356757 166.663784,67.3924324 167.403243,66.547027 C168.097297,65.7535135 168.793514,64.9578378 169.472432,64.1513514 C170.192432,63.2972973 170.897297,62.4324324 171.6,61.5675676 C172.263784,60.7481081 172.925405,59.9308108 173.571892,59.1027027 C174.252973,58.2291892 174.918919,57.3448649 175.582703,56.4605405 C176.216216,55.6172973 176.845405,54.7740541 177.461622,53.92 C178.103784,53.0291892 178.730811,52.1297297 179.353514,51.2281081 C179.952432,50.3610811 180.547027,49.4940541 181.128649,48.6183784 C181.734054,47.7081081 182.322162,46.7891892 182.905946,45.8681081 C183.47027,44.9816216 184.028108,44.092973 184.572973,43.1978378 C185.137297,42.2702703 185.684324,41.3362162 186.229189,40.4 C186.756757,39.4897297 187.28,38.5772973 187.788108,37.6583784 C188.311351,36.7156757 188.817297,35.7686486 189.318919,34.8194595 C189.80973,33.8854054 190.294054,32.9513514 190.767568,32.0108108 C191.245405,31.0551351 191.712432,30.092973 192.170811,29.1286486 C192.624865,28.1751351 193.07027,27.2172973 193.502703,26.2551351 C193.939459,25.2864865 194.361081,24.3156757 194.776216,23.3383784 C195.191351,22.3632432 195.597838,21.3837838 195.991351,20.4 C196.382703,19.4205405 196.761081,18.4367568 197.132973,17.4508108 C197.507027,16.4518919 197.87027,15.452973 198.222703,14.4475676 C198.570811,13.4572973 198.905946,12.4648649 199.232432,11.4681081 C199.398919,10.9578378 199.587027,10.4583784 199.747027,9.94810811 C205.52,9.92432432 211.435676,10.1794595 217.353514,10.707027 L217.353514,10.707027 Z M127.457297,24.4454054 C127.325405,24.64 127.206486,24.8410811 127.072432,25.0356757 C126.728649,25.5372973 126.363243,26.0302703 126.008649,26.5275676 C125.154595,27.7275676 124.278919,28.9145946 123.375135,30.0864865 C122.957838,30.6291892 122.534054,31.1697297 122.105946,31.7037838 C121.137297,32.9124324 120.138378,34.1016216 119.115676,35.2778378 C118.767568,35.68 118.428108,36.0908108 118.073514,36.4886486 C116.68973,38.0367568 115.267027,39.5545946 113.796757,41.04 C113.509189,41.3297297 113.208649,41.6064865 112.918919,41.8940541 C111.71027,43.0897297 110.473514,44.2681081 109.208649,45.4205405 C108.715676,45.8724324 108.20973,46.3135135 107.708108,46.7589189 C106.564324,47.7686486 105.401081,48.7589189 104.216216,49.7318919 C103.716757,50.1427027 103.221622,50.5556757 102.717838,50.9578378 C101.167568,52.1924324 99.5891892,53.4032432 97.9718919,54.5751351 C97.8508108,54.6637838 97.7340541,54.7589189 97.6108108,54.8475676 C95.8637838,56.1059459 94.0691892,57.3210811 92.2486486,58.5037838 C91.7362162,58.8367568 91.212973,59.1567568 90.6962162,59.4832432 C89.3491892,60.332973 87.9848649,61.1632432 86.6032432,61.9718919 C85.9978378,62.3243243 85.3924324,62.6745946 84.7805405,63.0205405 C83.3275676,63.84 81.8508108,64.6335135 80.3610811,65.4054054 C79.8789189,65.6562162 79.4075676,65.9156757 78.9232432,66.1578378 C76.9556757,67.1502703 74.9621622,68.1016216 72.9362162,69.0054054 C72.5362162,69.1848649 72.1232432,69.3491892 71.7210811,69.5264865 C70.0821622,70.24 68.4281081,70.9297297 66.7545946,71.587027 C66.0821622,71.8508108 65.4032432,72.1059459 64.7243243,72.3589189 C63.2345946,72.9210811 61.7297297,73.4551351 60.2162162,73.9697297 C59.5481081,74.1967568 58.8843243,74.4281081 58.2118919,74.6443243 C57.8897297,74.7481081 57.5610811,74.8367568 57.2389189,74.9383784 C76.5405405,52.8497297 100.471351,35.6410811 127.457297,24.4454054 L127.457297,24.4454054 Z M200.441081,390.486486 C95.5243243,390.486486 10.1708108,305.130811 10.1708108,200.216216 C10.1708108,193.403243 10.5340541,186.549189 11.2562162,179.79027 C12.2335135,179.772973 13.2151351,179.727568 14.1945946,179.701622 C15.3751351,179.669189 16.5556757,179.638919 17.7383784,179.593514 C19.4789189,179.524324 21.2194595,179.431351 22.9621622,179.331892 C24.0821622,179.269189 25.2021622,179.212973 26.3221622,179.137297 C28.24,179.005405 30.1556757,178.838919 32.0713514,178.67027 C33.0075676,178.585946 33.9459459,178.518919 34.88,178.428108 C37.7297297,178.147027 40.5708108,177.831351 43.4032432,177.468108 C132.315676,166.038919 207.872432,114.717838 241.347027,43.28 C265.671351,73.5005405 304.75027,90.9167568 348.300541,90.9167568 C350.854054,90.9167568 353.422703,90.8497297 356.004324,90.7286486 C356.175135,90.972973 356.358919,91.2064865 356.527568,91.4508108 C378.890811,123.476757 390.711351,161.087568 390.711351,200.216216 C390.711351,305.130811 305.355676,390.486486 200.441081,390.486486 L200.441081,390.486486 Z" id="Fill-15" sketch:type="MSShapeGroup"></path>
            </g>
        </g>
    </g>
</svg>